<svg width="300" height="125" viewBox="0 0 300 125" fill="none" xmlns="http://www.w3.org/2000/svg">
<path d="M184.063 88.5941V27.8812H194.975V49.8614C198.672 46.3267 203.433 44.3663 208.46 44.3663C220.26 44.3663 230.728 53.396 230.728 67C230.728 80.604 220.26 89.6634 208.46 89.6634C203.167 89.6634 198.169 87.5545 194.443 83.7228V88.5941H184.063ZM219.816 67C219.816 59.396 214.434 54.0792 207.396 54.0792C200.535 54.0792 195.241 59.1287 194.975 66.4653V67C194.975 74.604 200.358 79.9208 207.396 79.9208C214.434 79.9208 219.816 74.604 219.816 67ZM235.785 88.5941V27.8812H246.697V88.5941H235.785ZM261.957 104.337L268.315 89.099L251.045 45.4356H262.844L273.845 75.9406L285.023 45.4356H297L273.579 104.366H261.957V104.337ZM166.734 45.4356V50.9307C162.948 46.7723 157.655 44.396 152.214 44.396C140.414 44.396 129.946 53.4257 129.946 67.0297C129.946 80.6634 140.414 89.6634 152.214 89.6634C157.862 89.6634 163.215 87.198 167.089 82.7723V88.6238H176.611V45.4356H166.734ZM165.669 67C165.669 74.5148 160.287 79.9208 153.249 79.9208C146.21 79.9208 140.828 74.5148 140.828 67C140.828 59.4851 146.21 54.0792 153.249 54.0792C160.109 54.0792 165.403 59.2178 165.669 66.4653V67Z" fill="white"/>
<path d="M57.8031 16L11.1083 101.842L2 95.4257L45.2052 16H57.8031ZM58.4537 16L105.148 101.842L114.257 95.4257L71.0515 16H58.4537Z" fill="white"/>
<path d="M104.498 102.347L58.1283 65.8713L11.7589 102.347L21.222 109L58.1283 79.9802L95.0346 109L104.498 102.347Z" fill="white"/>
</svg>
