<?xml version="1.0" encoding="utf-8"?>
<!-- Generator: Adobe Illustrator 24.2.1, SVG Export Plug-In . SVG Version: 6.00 Build 0)  -->
<svg version="1.1" id="Layer_1" xmlns="http://www.w3.org/2000/svg" xmlns:xlink="http://www.w3.org/1999/xlink" x="0px" y="0px"
	 viewBox="0 0 186.03 151.1" style="enable-background:new 0 0 186.03 151.1;" xml:space="preserve">
<style type="text/css">
	.st0{fill:#1B1C1C;}
	.st1{fill:#FFFFFF;}
	.st2{fill:#111110;}
</style>
<path class="st0" d="M21.28,25.78c2.75-4.88,4.87-10.46,10.51-14.08C41.2,5.67,57.44,3,80.99,2.79
	c36.63-0.32,80.62,17.06,85.83,23.54c20.58,25.66,27.38,46.92-16.16,70.81c-3.38,1.85-6.82,4.02-10.49,4.83
	c-8.46,1.85-7.53,6.04-4.43,12.17c4.36,8.61,8.07,17.55,11.82,26.44c0.91,2.15,3.37,4.62,0.74,7.06c-3.19,2.96-5.36-0.35-7.46-1.87
	c-13.59-9.84-27.28-19.58-40.51-29.9c-6.99-5.45-14.5-7.78-23.19-8.07c-33.61-1.1-61.59-26.18-63.26-56.42
	C13.5,44.48,16.71,33.89,21.28,25.78z"/>
<path class="st0" d="M173.38,111.96c2.79,0.17,4.76-0.15,4-2.24c-1.78-4.94-5.37-8.53-10.19-10.59c-1.88-0.8-3.2,1.07-2.89,2.59
	C165.43,107.24,169.91,109.72,173.38,111.96z"/>
<path class="st0" d="M9.38,17.42c2.29,0.01,3.45-1.13,2.6-2.97c-1.6-3.44-3.1-7.4-7.22-8.42c-2.28-0.56-3.5,1.72-3.04,3.8
	C2.65,13.97,5.74,16.17,9.38,17.42z"/>
<path class="st0" d="M158.78,103.57c-2.43,0.57-3.52,2.08-2.91,4.22c0.78,2.74,1.86,5.55,5.22,6.06c2.09,0.31,2.92-1.06,2.36-2.89
	C162.58,108.07,162.25,104.7,158.78,103.57z"/>
<path class="st1" d="M96.85,9.03c29.38,2.38,57.59,12.6,64.04,19.41c19.88,20.97,24.47,43.02-11.65,62.58
	c-5.08,2.75-10.22,5.95-15.72,7.21c-9.76,2.22-9.89,6.53-5.57,14.21c3.68,6.53,6.04,13.81,8.99,20.76
	c-0.53,0.38-1.05,0.75-1.58,1.13c-10.46-7.94-21.02-15.76-31.34-23.88c-4.7-3.7-9.41-5.95-15.68-6.34
	c-13.23-0.82-26.1-3.91-38.16-9.68c-9.4-4.51-27.58-20.71-30.32-38.69c-2.5-16.39,9.8-34.67,14.26-38.97
	C38.94,12.1,68.5,6.74,96.85,9.03z"/>
<g>
	<g>
		<path class="st2" d="M62.39,81.7c-0.09,0.02-0.2,0-0.33-0.06c-0.27-0.21-0.57-0.59-0.9-1.14l-1.81-4.76
			c-0.22-0.64-0.45-0.96-0.68-0.95c-0.23,0.1-0.53,0.4-0.9,0.9l-1.94,3.17c-0.15,0.24-0.28,0.41-0.39,0.51
			c-0.06,0.02-0.12,0-0.17-0.04c-0.07-0.19-0.12-0.68-0.15-1.46c-0.08-2.1-0.26-3.67-0.53-4.72c-0.2-0.58-0.43-0.89-0.68-0.93
			c-0.23,0.1-0.49,0.44-0.76,1.01c-0.87,2.1-1.39,3.26-1.58,3.49c-0.34,0.35-0.64,0.43-0.89,0.23c-0.19-0.25-0.33-0.65-0.41-1.2
			l0.25-4.43c-0.03-0.5-0.13-0.8-0.3-0.89c-0.24,0.04-0.56,0.28-0.98,0.73l-2.47,3.68c-0.31,0.37-0.55,0.52-0.72,0.44
			c-0.13-0.19-0.19-0.59-0.19-1.23l0.32-3.77c0.05-0.49,0.05-0.77-0.02-0.83c-0.09,0.03-0.31,0.27-0.65,0.7
			c-1.1,1.46-2.03,2.43-2.77,2.9c-0.42,0.2-0.72,0.19-0.9-0.03c-0.08-0.27-0.09-0.63,0-1.09c0.37-1.25,3.01-5.38,2.97-5.46
			c-0.13-0.01-0.46,0.18-1,0.59l-3.29,2.89c-0.4,0.25-0.68,0.27-0.83,0.07c-0.05-0.25-0.02-0.65,0.09-1.18l2.53-5.13
			c0.07-0.33-1.74,0.72-2.11,0.98c-0.93,0.68-1.69,1.11-2.26,1.28c-0.6,0.09-0.97-0.1-1.12-0.57c-0.04-0.44,2.11-2.78,4.78-4.22
			c0.68-0.44,1.08-0.98,1.19-1.61c0.02-0.69-0.3-1.3-0.94-1.82c-0.53-0.33-2.22-0.76-5.09-1.28c-0.56-0.13-3.25-2.29-4.83-4.43
			c-1.67-2.26-2.23-4.51-2.23-4.51c-0.71-1.99-1.05-3.32-1.04-4c0.11-0.6,0.39-0.93,0.83-0.99c0.41,0.05,0.83,0.3,1.27,0.73
			c0.45,0.51,1.12,1.67,2,3.48c0.43,0.81,1.01,1.49,1.75,2.04l2.92,1.54c0.24,0.07,0.43,0.12,0.57,0.13
			c0.11-0.02,0.16-0.08,0.16-0.19c-0.07-0.22-0.28-0.58-0.64-1.07l-2.22-2.98c-0.57-0.93-0.94-2-1.11-3.19l-0.11-3.71
			c0.05-0.49,0.16-0.75,0.31-0.79c0.18,0.09,0.4,0.4,0.66,0.93l1.66,4.46c0.37,0.92,0.98,1.8,1.83,2.63
			c1.64,1.56,2.97,2.58,3.97,3.08c0.43,0.16,0.75,0.18,0.95,0.05c0.11-0.19,0.08-0.48-0.07-0.87c-0.33-0.65-0.95-1.37-1.85-2.13
			c-2.49-2.04-3.9-4.17-4.24-6.38l0.05-4.14c-0.06-2.66,0.04-4.5,0.3-5.49c0.21-0.57,0.45-0.84,0.71-0.8
			c0.26,0.18,0.48,0.64,0.67,1.38l0.88,5.56c0.32,1.07,0.97,2.22,1.92,3.46c1.4,1.75,2.63,2.9,3.7,3.46
			c0.62,0.27,1.03,0.24,1.23-0.1c0.07-0.35-0.03-0.84-0.29-1.48l-1.73-3.08c-0.51-0.98-0.86-2.01-1.04-3.1
			c-0.26-1.81-0.24-3.43,0.05-4.87c0.19-0.68,0.43-1.06,0.73-1.13c0.32,0.06,0.62,0.4,0.92,1.04c0.16,0.42,0.74,3.73,0.87,4.99
			c0.15,1.2,0.49,2.26,1.02,3.19c0.79,1.26,1.65,2.23,2.6,2.92c0.59,0.36,1.01,0.37,1.25,0.02c0.15-0.37,0.19-0.98,0.12-1.85
			c-0.38-3.46-0.35-5.76,0.08-6.91c0.39-0.8,0.82-1.24,1.27-1.33c0.41,0.07,0.66,0.55,0.74,1.45c0.11,4.11,0.36,6.36,0.75,6.75
			c0.77,0.57,1.43,0.62,1.97,0.17c0.23-0.34,0.17-1-0.19-1.98c-0.96-2.66-0.78-4.69,0.55-6.09c0.66-0.57,1.24-0.76,1.74-0.58
			c0.15,0.12-0.42,1.47-0.39,3.07s0.67,3.47,1.14,3.96c0.67,0.52,1.33,0.69,1.95,0.5c0.45-0.25,0.78-0.73,0.98-1.44
			c0.63-3.29,0.95-4.95,0.95-4.97c0.46-0.58,0.93-0.83,1.43-0.77c0.41,0.18-0.33,6.13-0.33,6.13c0.14,0.53,0.42,0.79,0.85,0.78
			c0.47-0.14,0.91-0.53,1.32-1.17l1.89-5.13c0.35-0.48,0.7-0.68,1.05-0.59c0.3,0.2,0.46,0.64,0.48,1.34l-0.98,4.52
			c0,0.63,0.2,1.02,0.59,1.17c0.47,0.04,1-0.19,1.57-0.67c0.61-0.69,1.19-2.06,1.73-4.11c0.16-0.51,0.36-0.8,0.6-0.87
			c0.21,0.03,0.44,0.19,0.7,0.48c0.57,0.78-0.2,4.61-0.02,5.57c0.02,0.13-0.09,0.99,0.16,0c0.09-0.37,0.73-1.9,1.14-3.6
			c0.31-1.29,0.35-2.82,0.68-3.15c0.42-0.28,0.79-0.27,1.11,0.02c0.21,0.33,0.35,0.77,0.41,1.34c0,0.62-0.21,1.99-0.64,4.13
			c-0.1,0.63-0.01,1,0.26,1.11c0.3,0.01,0.69-0.13,1.17-0.41c0,0,1.61-0.11,2.71-0.97c0.97-0.75,1.43-2.28,1.57-2.2
			c0.26,0.25,0.4,0.66,0.43,1.24c-0.1,2.01-1.1,3.34-3.01,4l-1.08,0.31c0,0.09,0.19,0.27,0.56,0.53c0.79,0.55,1.42,0.89,1.92,1.02
			c0.54,0.05,0.95-0.34,1.25-1.19L83.12,39c0.2-0.32,0.4-0.45,0.61-0.39c0.23,0.2,0.44,0.57,0.64,1.12l0.8,3.96
			c0.11,0.53,0.27,0.78,0.49,0.75c0.17-0.1,0.46-0.36,0.86-0.78c1.39-1.39,2.64-2.16,3.75-2.31c0.63,0.02,1.02,0.25,1.15,0.68
			c-0.01,0.35-0.17,0.72-0.49,1.12l-1.96,2.01c-0.33,0.62-0.26,1.21,0.21,1.77c0.45,0.42,1.14,0.76,2.06,1.04
			c1.19,0.32,5.75,3.36,5.88,3.58c0.33,0.72,0.39,1.26,0.18,1.63c-0.23,0.24-0.66,0.39-1.29,0.43c-1.51,0.05-2.85-0.02-4-0.22
			c-0.05,0-1.04-0.84-2.99-2.53c-1.53-1.21-3.49-2.25-5.89-3.11c-0.86-0.28-1.42-0.26-1.68,0.06c-0.16,0.37-0.11,1,0.16,1.89
			c1.37,4.18,1.73,7.27,1.06,9.27c-0.9,2.51-2.04,4.34-3.4,5.47l-1.77,1.18l-3.65,1.72c-1.86,0.66-4.08,1.05-6.64,1.17
			c-1.97,0.09-3.57-0.02-4.81-0.34c-1.57-0.47-3.08-1.24-4.52-2.31c-1.27-0.96-2.29-2.1-3.08-3.41c-0.8-1.4-1.4-2.93-1.78-4.6
			c-0.32-1.46-0.38-2.92-0.2-4.39l1.45-5.69c0.17-0.71,0.12-1.13-0.15-1.25c-0.3-0.02-0.75,0.11-1.36,0.41
			c-1.73,0.94-3.19,2.14-4.39,3.6c-1.01,1.32-1.54,2.83-1.6,4.53l-0.2,4.76c-0.09,1.36,0.27,2.52,1.1,3.48l3.26,2.83
			c0.8,0.6,2.05,1.27,3.74,2.02l4.24,2.17c0.97,0.5,2.19,0.89,3.65,1.17l4.46,0.73c1.12,0.09,2.5-0.09,4.13-0.52l4.51-1.29
			c0.8-0.36,1.74-1.3,2.85-2.81c0.67-0.87,1.7-1.72,3.09-2.55c0.89-0.56,1.83-1.5,2.84-2.83c0.83-1.04,2.01-1.91,3.54-2.61
			c0.95-0.43,1.93-1.17,2.93-2.22c1.56-1.53,3.08-1.99,4.58-1.36c0.61,0.36,0.95,0.85,1.03,1.47c-0.04,0.47-0.25,0.94-0.65,1.41
			c-0.45,0.45-1.35,1.1-2.72,1.95l-2.75,1.6l-2.71,1.36c-0.65,0.49-1.13,1.13-1.42,1.92l-0.57,2c-0.3,0.65-0.79,1.11-1.46,1.38
			l-2.07,0.62c-0.4,0.29-0.6,0.73-0.58,1.31l0.38,1.95c-0.01,0.24-0.11,0.39-0.3,0.46c-0.24,0.02-0.59-0.02-1.07-0.12
			c-1.28-0.24-2.29-0.21-3.03,0.09c-0.37,0.23-0.7,0.54-0.97,0.94l-0.63,1.53c-0.27,0.68-0.84,0.93-1.71,0.73
			c-0.73-0.19-2.04-2.64-4.46-2.22c-1.84,0.18-3.07,2.92-3.17,3.08l-0.56,1.38c-0.15,0.22-0.34,0.33-0.56,0.32
			c-0.19-0.07-0.4-0.21-0.62-0.41l-1.9-2.35l-0.29-0.25c-0.08,0-0.14,0.03-0.19,0.08c-0.04,0.21-0.04,0.58,0,1.14
			c0.2,1.89,0.27,3.12,0.2,3.71C62.62,81.41,62.53,81.6,62.39,81.7z M74.46,54.25c-0.01,0.08,0,0.16,0.05,0.24
			c0.19,0.17,0.53,0.33,1,0.47c1.22,0.3,2.33,0.38,3.32,0.23c0.25-0.07,0.43-0.15,0.54-0.25c0.01-0.06,0.05-1.18-0.43-1.33
			C77.72,53.3,75.99,53.85,75,54C74.75,54.07,74.57,54.15,74.46,54.25z M78.89,58.64c0.01-0.39-0.17-0.7-0.54-0.91
			c-0.68-0.06-1.18,0.17-1.5,0.7c-0.01,0.38,0.17,0.67,0.54,0.89C78.07,59.39,78.57,59.17,78.89,58.64z M77.41,51.93
			c0.01-0.03,0.05-0.42-0.06-0.71c-0.1-0.29-0.36-0.48-0.56-0.54c-1.08-0.24-2.45,0.35-3.26,0.41c-0.17,0.04-0.31,0.08-0.4,0.13
			c-0.01,0.06,0.01,0.13,0.08,0.21c0.22,0.12,0.54,0.24,0.95,0.36c1.08,0.23,2.02,0.32,2.82,0.27
			C77.16,52.02,77.3,51.98,77.41,51.93z M72.25,59.05c-0.06,0.27,0,0.6,0.16,0.99c0.61,1.12,1.06,2.26,2.06,2.71
			c0.46,0.12,1.91-0.94,1.74-1.33c-0.59-1.12-2.03-2.1-3.05-2.55C72.71,58.73,72.4,58.8,72.25,59.05z M70.31,63.94
			c0.35,0.64,1.7-0.24,1.66-0.64c-0.19-0.78-1.3-1.84-1.74-2.37c-0.22-0.18-0.42-0.23-0.59-0.15c-0.09,0.19-0.12,0.48-0.08,0.85
			C69.76,62.44,69.87,63.42,70.31,63.94z M60.3,49.48c0.19-0.04,0.38-0.21,0.58-0.53l0.58-1.97c0.43-0.48,1.39-0.19,2.43,0.1
			c3.27,1.01,5.33,0.83,6.18-0.54c0.51-1.15,0.37-2.11-0.42-2.88c-0.59-0.44-1.51-0.6-2.76-0.48c-2.39,0.29-4.09,0.61-5.09,0.94
			c-1.06,0.45-1.76,1.17-2.1,2.15c-0.23,0.9-0.21,1.76,0.06,2.58C59.93,49.23,60.11,49.44,60.3,49.48z M67.06,61.65
			c-0.1-0.38-0.3-0.57-0.58-0.58c-0.22,0.08-0.44,0.25-0.67,0.51c-0.6,0.87-1.28,1.99-1.11,2.89c0.14,0.74,1.45,0.55,1.68,0.3
			C66.97,63.91,67.14,62.58,67.06,61.65z M60.1,53.3c0.03-0.25-0.04-0.53-0.18-0.82c-0.6-0.81-1.1-1.63-1.97-1.65
			c-0.13,0.03-0.65,0.25-0.92,0.64c-0.3,0.44-0.34,1.07-0.26,1.23c0.6,0.81,1.88,0.98,2.75,0.99C59.79,53.62,59.98,53.49,60.1,53.3z
			 M57.55,59.27c0.13,0.28,0.23,0.86,0.74,0.89c0.53-0.14,1.18-0.81,1.33-1.11c-0.13-0.3-0.45-0.45-0.96-0.47
			C58.13,58.7,57.7,58.96,57.55,59.27z"/>
	</g>
</g>
<g>
	<g>
		<g>
			<path class="st2" d="M142.44,60.11c-0.11-0.02-0.23-0.04-0.34-0.05c-0.03,0-0.06-0.01-0.09-0.01
				C142.72,60.18,142.64,60.15,142.44,60.11z"/>
		</g>
		<g>
			<path class="st2" d="M125.8,62.53c3.1,0.02,6.29,0.33,9.38,0.64l-9.36-4.4l0,0c-5.4-0.03-10.72,0.77-15.15,3.84
				c-2.07,1.67-3.84,3.87-5.01,6.27c0-0.03-0.6,1.65-0.34,2.48c-0.04-0.19-0.05-0.27-0.05-0.27c0.01,0,0.55,2.66,0.79,3.1
				c0.12,0.35,0.8,1.54,1.24,2.29c0.23,0.39,0.58,0.84,0.68,0.94c5.06,5.16,13.14,7.36,20.99,7.41c7.19,0.04,14.17-1.73,18.45-4.69
				c1.52-1.35,3.13-2.64,4.41-4.25c1.07-1.24,1.81-2.96,2.1-4.59c0.36-2.91-0.32-6.52-2.95-8.17c-0.22-0.22-2.25-0.34-3.76,0.03
				c-1.88,0.46,1.42,2.94,1.42,2.94l0.33,0.21c1.07,0.67,1.43,2.73,1.24,4.44c-0.19,1.01-0.65,2.03-1.22,2.69l-0.05,0.06l-0.05,0.07
				c-0.82,1.04-1.92,1.99-3.07,3c-0.23,0.2-0.46,0.4-0.69,0.61c-3.66,2.44-9.8,3.94-16.11,3.9c-7.86-0.04-14.56-2.36-18.42-6.37
				c-0.32-0.56-0.82-1.44-0.98-1.79l-0.07-0.22l-0.04-0.07c-0.04-0.13-0.41-1.2-0.37-2.03c0.03-0.62,0.45-1.04,0.54-1.19
				c0.86-1.42,1.99-2.73,3.26-3.78C116.08,63.48,120.17,62.5,125.8,62.53 M110.95,62.39c-0.13,0.1-0.25,0.19-0.38,0.29
				c0.03-0.02,0.07-0.05,0.1-0.07C110.77,62.54,110.86,62.46,110.95,62.39L110.95,62.39z"/>
		</g>
		<g>
			<path class="st2" d="M137.99,59.49C137.61,59.44,137.2,59.4,137.99,59.49L137.99,59.49z"/>
		</g>
	</g>
	<g>
		<path class="st2" d="M114.88,70.86c1.01,0.75,2.13,1.33,3.26,1.76c1.3,0.5,2.65,0.85,4.01,1.08c0.34,0.08,0.69,0.09,1.03,0.13
			c0.35,0.03,0.68,0.11,1.03,0.12c0.69,0.03,1.38,0.12,2.08,0.09c0.69-0.01,1.39,0.04,2.08-0.03c0.7-0.04,1.39-0.06,2.08-0.16
			c2.78-0.28,5.61-0.69,8.33-1.34c1.36-0.33,2.71-0.72,3.98-1.28c0.64-0.27,1.44-1.06,2.02-1.45c0.25-0.17,0.65-0.15,0.76-0.09
			c0.14,0.07-0.25,0.71-0.53,1.03c-0.5,0.57-1.1,1.04-1.71,1.48c-1.25,0.84-2.61,1.5-4.01,1.99c-2.81,1.02-5.68,1.61-8.64,1.9
			c-2.95,0.25-6,0.16-8.9-0.69c-1.45-0.4-2.84-1.02-4.12-1.8c-0.18-0.11-1.4-0.65-2.12-1.3c-0.61-0.54-0.73-1.2-0.81-1.3
			c-0.03-0.04-0.1-0.2-0.07-0.24C114.7,70.73,114.84,70.83,114.88,70.86z"/>
	</g>
	<g>
		<path class="st2" d="M149.32,81.55"/>
	</g>
	<g>
		<g>
			<path class="st2" d="M114.2,56.41c-0.56-0.59-1.11-1.78-1.47-2.81c-0.36-1.03-0.55-1.91-0.38-1.88c1.56,0.78,2.88,1.13,3.9,1.31
				c1.02,0.18,1.72,0.19,2.04,0.29c0.12,0.04,0.19,0.72,0.18,1.52c-0.02,0.79-0.12,1.7-0.35,2.18c-0.07,0.15-0.88,0.18-1.75,0.09
				C115.5,57,114.55,56.78,114.2,56.41z M120.26,65.8c-0.02,0.03-0.06,0.06-0.12,0.08c-0.06,0.02-0.15,0.03-0.24,0.01
				s-0.2-0.08-0.29-0.14c-0.09-0.06-0.16-0.12-0.19-0.16c-0.38-0.5-0.75-0.99-1.12-1.49c-0.37-0.5-0.74-1-1.09-1.51
				c-0.27-0.38-0.52-0.77-0.76-1.16c-0.25-0.39-0.49-0.79-0.74-1.18c-0.13-0.21-0.26-0.41-0.39-0.62c-0.13-0.21-0.26-0.41-0.39-0.62
				c-0.02-0.03-0.04-0.07-0.06-0.1c-0.02-0.04-0.04-0.07-0.05-0.11c-0.11-0.26,0.68-0.3,1.55-0.28s1.81,0.12,1.99,0.12
				c0.16,0,0.27,0.41,0.39,1c0.12,0.59,0.25,1.37,0.45,2.11c0.26,0.95,0.56,1.94,0.77,2.7C120.16,65.19,120.3,65.73,120.26,65.8z
				 M140.72,69.2c-0.06,0.1-0.17,0.18-0.27,0.25c-0.19,0.14-0.38,0.28-0.58,0.42c-0.19,0.13-0.39,0.25-0.6,0.33
				c-0.67,0.24-1.33,0.48-2,0.7c-0.67,0.22-1.34,0.43-2.02,0.61c-0.62,0.17-1.25,0.32-1.88,0.45c-0.63,0.13-1.27,0.24-1.9,0.33
				c-0.53,0.07-1.77,0.16-3.02,0.21c-1.25,0.06-2.52,0.09-3.11,0.05c-0.6-0.03-1.18-0.12-1.66-0.21s-0.86-0.18-1.07-0.23
				c-0.08-0.02-0.18-0.11-0.26-0.22c-0.08-0.11-0.14-0.25-0.14-0.35c-0.01-0.19,0.06-0.25,0.16-0.27c0.1-0.02,0.22,0.01,0.34,0.02
				c0.58,0.04,1.16,0.09,1.74,0.13c0.58,0.04,1.16,0.06,1.73,0.05c0.92-0.02,1.83-0.06,2.74-0.12c0.91-0.06,1.83-0.13,2.74-0.2
				c0.45-0.04,0.9-0.11,1.34-0.2c0.45-0.08,0.89-0.18,1.34-0.27c0.48-0.09,0.96-0.19,1.44-0.29c0.48-0.1,0.96-0.2,1.44-0.3
				c0.51-0.11,1.01-0.28,1.48-0.5c0.48-0.22,0.94-0.48,1.39-0.78c0.1-0.06,0.2-0.16,0.3-0.19c0.1-0.03,0.2,0,0.3,0.18
				C140.79,68.97,140.78,69.1,140.72,69.2z M134.83,33.82c0.53,0.11,1.06,0.24,1.59,0.38c0.53,0.14,1.05,0.29,1.58,0.42
				c0.67,0.17,1.31,0.4,1.94,0.66c0.63,0.26,1.24,0.56,1.86,0.84c0.55,0.25,1.07,0.55,1.55,0.9c0.48,0.35,0.93,0.74,1.32,1.19
				c0.29,0.33,0.53,0.69,0.67,1.08c0.14,0.39,0.17,0.81,0.04,1.25c-0.06,0.21-0.52,0.98-0.67,1.15c-0.31,0.35-0.64,0.69-1,1.01
				s-0.74,0.6-1.16,0.85c-0.33,0.19-1.58,1.04-1.9,1.24c-0.76,0.46-1.55,0.87-2.37,1.21c-0.82,0.34-1.67,0.6-2.57,0.77
				c-0.42,0.08-0.83,0.19-1.24,0.31c-0.41,0.11-0.82,0.23-1.24,0.32c-0.5,0.11-0.99,0.21-1.49,0.31c-0.5,0.1-1,0.18-1.5,0.26
				c-1.17,0.17-2,0.29-2.82,0.4c-0.82,0.11-1.62,0.21-2.73,0.33c-0.83,0.09-1.66,0.13-2.49,0.12c-0.83-0.01-1.66-0.07-2.49-0.16
				c-0.48-0.05-0.96-0.1-1.44-0.15c-0.48-0.05-0.96-0.11-1.43-0.19c-0.45-0.08-0.85-0.05-1.29-0.16c-0.44-0.11-0.93-0.35-1.37-0.48
				c-0.5-0.15-1.01-0.3-1.51-0.46c-0.5-0.16-0.99-0.33-1.48-0.52c-0.58-0.22-1.13-0.47-1.65-0.79c-0.52-0.31-0.99-0.69-1.41-1.14
				c-0.07-0.08-0.31-0.43-0.35-0.53c-0.17-0.44-0.33-0.88-0.41-1.34c-0.08-0.45-0.08-0.92,0.05-1.4c0.13-0.47,0.35-0.89,0.64-1.26
				c0.29-0.37,0.64-0.69,1.03-0.99c0.36-0.27,0.71-0.54,1.07-0.81c0.36-0.26,0.73-0.52,1.1-0.77c0.29-0.19,0.6-0.35,0.91-0.51
				c0.31-0.16,0.63-0.31,0.94-0.47c0.29-0.14,0.57-0.29,0.86-0.43c0.29-0.14,0.58-0.27,0.88-0.38c0.62-0.22,1.25-0.44,1.88-0.64
				s1.26-0.4,1.9-0.58c1.04-0.3,2.26-0.26,3.33-0.45c1.06-0.19,1.97-0.62,3.06-0.67c0,0,4.71-1.46,4.78-1.95
				c0.07-0.49-2.37-0.44-2.37-0.44c-0.67,0.03-1.33,0.07-2,0.13c-0.66,0.06-1.33,0.13-1.99,0.23c-0.66,0.09-1.33,0.21-1.99,0.34
				c-0.66,0.13-1.32,0.27-1.98,0.41c-0.48,0.1-0.97,0.2-1.45,0.31c-0.48,0.11-0.96,0.23-1.43,0.38c-0.75,0.24-1.5,0.5-2.23,0.79
				c-0.73,0.29-1.46,0.6-2.18,0.94c-0.62,0.29-1.22,0.61-1.79,0.96c-0.58,0.35-1.37,0.74-1.91,1.15c-0.54,0.42-0.8,0.86-1.3,1.33
				c-0.5,0.47-0.98,0.95-1.47,1.43c-0.17,0.16-0.31,0.36-0.44,0.56c-0.13,0.2-0.24,0.42-0.34,0.64c-0.19,0.42-0.28,0.85-0.31,1.29
				s-0.02,0.89,0,1.34c0.04,0.72,0.15,1.43,0.3,2.13c0.15,0.7,0.33,1.4,0.5,2.09c0.16,0.66,0.35,1.32,0.54,1.97
				c0.2,0.65,0.4,1.3,0.6,1.95c0.1,0.34,0.21,0.67,0.32,1.01c0.11,0.33,0.22,0.67,0.33,1c0.13,0.39,0.25,0.79,0.38,1.19
				c0.13,0.4,0.26,0.79,0.4,1.18c0.18,0.48,0.37,0.96,0.56,1.43c0.19,0.47,0.4,0.94,0.61,1.41c0.29,0.64,0.59,1.27,0.9,1.9
				c0.31,0.63,0.63,1.26,0.96,1.87c0.26,0.48,0.54,0.95,0.83,1.42c0.29,0.46,0.6,0.92,0.92,1.36c0.31,0.43,0.63,0.84,0.96,1.25
				c0.33,0.41,0.68,0.81,1.02,1.2c0.26,0.3,0.55,0.58,0.84,0.85c0.29,0.28,0.58,0.55,0.87,0.83c0.11,0.11,0.22,0.23,0.33,0.35
				c0.11,0.12,0.21,0.24,0.3,0.37c0.04,0.05,0.07,0.12,0.1,0.18c0.03,0.07,0.04,0.14,0.05,0.21c0.02,0.15,0.04,0.29,0.05,0.44
				c0.01,0.15,0.02,0.3,0.04,0.44c0.06,0.47,0.3,0.94,0.64,1.33c0.14,0.16,0.57,0.55,1.16,0.81c0.88,0.39,2.03,0.66,2.52,0.77
				c0.81,0.19,4.27,0.75,5.21,0.78c0.94,0.03,1.88-0.02,2.82-0.08c0.46-0.03,0.92-0.09,1.37-0.16c0.46-0.07,0.91-0.16,1.37-0.24
				c0.55-0.1,1.1-0.19,1.65-0.29c0.55-0.1,1.1-0.22,1.63-0.36c0.67-0.18,1.34-0.37,2.01-0.58c0.66-0.21,1.32-0.43,1.98-0.67
				c0.35-0.13,0.69-0.3,1.02-0.49s0.67-0.37,1.02-0.51c0.58-0.24,1.05-0.71,1.34-1.29c0.29-0.58,0.39-1.26,0.22-1.91
				c-0.03-0.13-0.05-0.26-0.04-0.4c0-0.14,0.03-0.28,0.06-0.4c0.09-0.31,0.19-0.62,0.29-0.93c0.1-0.31,0.21-0.62,0.31-0.93
				c0.23-0.71,0.45-1.42,0.68-2.14c0.23-0.71,0.45-1.43,0.67-2.14c0.01-0.03,0.18-0.39,0.36-0.77c0.18-0.38,0.37-0.8,0.43-0.96
				c0.02-0.06,0.1-0.2,0.19-0.36c0.26,0.11,0.53,0.21,0.79,0.3c0.51,0.17,0.99,0.31,1.53,0.24c0.25-0.03,0.51-0.08,0.74-0.19
				c0.45-0.2,0.6-0.35,0.95-0.69c0.17-0.19,0.27-0.4,0.33-0.64c0.1-0.23,0.13-0.48,0.09-0.74c-0.05-0.46-0.3-0.99-0.68-1.27
				c-0.39-0.29-0.88-0.49-1.38-0.42c-0.03,0.01-0.07-0.01-0.11-0.04c0.11-0.15,0.22-0.29,0.34-0.43c0.15-0.17,0.31-0.34,0.48-0.49
				c0.42-0.37,0.84-0.73,1.27-1.09c0.43-0.36,0.86-0.71,1.28-1.08c0.47-0.4,0.93-0.8,1.4-1.2c0.46-0.4,0.93-0.81,1.39-1.22
				c0.55-0.49,1.07-1.01,1.57-1.56c0.49-0.55,0.96-1.12,1.4-1.71c0.28-0.38,0.55-0.76,0.8-1.16c0.25-0.4,0.48-0.81,0.7-1.23
				c0.28-0.54,0.47-1.1,0.58-1.66c0.12-0.57,0.16-1.14,0.15-1.73c-0.01-0.66-0.08-1.31-0.24-1.93c-0.16-0.62-0.43-1.22-0.85-1.78
				c-0.56-0.75-1.09-1.63-1.82-2.07c-0.73-0.44-1.65-0.46-2.64-0.45c-0.57,0-1.14,0.04-1.69,0.14c-0.55,0.1-1.09,0.26-1.61,0.5
				c-0.59,0.27-1.14,0.59-1.65,0.97c-0.51,0.37-0.99,0.8-1.43,1.28c-0.13,0.14-0.23,0.2-0.34,0.2c-0.11,0-0.22-0.07-0.36-0.2
				c-0.36-0.33-0.57-0.73-0.78-1.12c-0.22-0.39-0.44-0.77-0.83-1.05c-0.66-0.48-1.35-0.9-2.05-1.29c-0.7-0.39-1.42-0.76-2.16-1.12
				c-1.06-0.52-2.31-0.87-3.58-1.15c-0.98-0.22-1.74-0.77-2.59-1.09c-0.25-0.1-0.34-0.17-0.83-0.15s-1.52,0.3-1.78,1.13
				c-0.1,0.34,0.15,0.74,0.52,0.98C133.77,33.65,134.57,33.77,134.83,33.82z M156.22,43.03c-0.09,0.35-0.24,0.7-0.42,1.04
				c-0.11,0.2-0.21,0.41-0.32,0.61c-0.11,0.2-0.23,0.4-0.36,0.58c-0.21,0.28-0.44,0.55-0.67,0.82c-0.23,0.27-0.76,0.53-1,0.78
				c-0.65,0.67-1.08,1.27-1.81,1.84c-0.73,0.58-1.48,1.13-2.22,1.71c-0.15,0.12-0.51,0.45-0.87,0.79c-0.36,0.33-0.72,0.67-0.88,0.77
				c-0.13,0.09-0.05-0.35,0.07-0.84c0.12-0.49,0.27-1.04,0.29-1.2c0.08-0.53,0.14-1.06,0.22-1.58c0.08-0.53,0.17-1.05,0.28-1.57
				c0.15-0.66,0.31-1.31,0.49-1.96c0.18-0.65,0.37-1.3,0.56-1.95c0.13-0.44,0.32-0.86,0.55-1.26c0.23-0.39,0.51-0.76,0.83-1.11
				c0.37-0.4,0.9-0.46,1.36-0.63c0.46-0.17,0.85-0.45,1.38-0.44c0.35,0.01,0.7,0.04,1.02,0.14c0.32,0.1,0.62,0.27,0.88,0.55
				c0.23,0.25,0.38,0.53,0.48,0.83c0.1,0.31,0.15,0.64,0.18,1C156.33,42.32,156.31,42.68,156.22,43.03z"/>
		</g>
		<g>
			<path class="st2" d="M118.36,40.69c-0.12-0.7-0.29-1.39-0.5-2.08l-0.16-0.51c-0.07-0.19-0.06-0.27-0.23-0.65
				c-0.05-0.09-0.12-0.2-0.24-0.31c-0.12-0.11-0.29-0.19-0.44-0.21c-0.31-0.03-0.44,0.01-0.69,0.14c-0.26,0.13-0.45,0.52-0.43,0.72
				c-0.01,0.21,0.03,0.35,0.05,0.43c0.35,1.41,0.75,2.78,1.15,4.16c0.22,0.69,0.41,1.37,0.73,2.04l0.21,0.5
				c0.07,0.16,0.1,0.34,0.24,0.51c0.14,0.17,0.75-0.04,0.77-0.14c0.02-0.1,0.02-0.19,0.01-0.29
				C118.5,43.6,118.66,42.09,118.36,40.69z"/>
		</g>
		<g>
			<path class="st2" d="M114.35,39.63l-0.16-0.44l-0.09-0.24c-0.04-0.11-0.1-0.25-0.22-0.4c-0.11-0.16-0.37-0.34-0.63-0.36
				c-0.26-0.01-0.39,0-0.66,0.15c-0.13,0.08-0.25,0.23-0.31,0.37c-0.06,0.14-0.07,0.26-0.07,0.35c0,0.18,0.04,0.27,0.05,0.34
				c0.27,1.3,0.72,2.43,1.13,3.61c0.21,0.58,0.47,1.16,0.72,1.73l0.18,0.43c0.06,0.14,0.09,0.3,0.22,0.45
				c0.14,0.16,0.37,0.13,0.51,0.05c0.18-0.1,0.21-0.32,0.18-0.48c-0.29-1.21-0.08-2.56-0.35-3.76
				C114.73,40.82,114.56,40.22,114.35,39.63z"/>
		</g>
		<g>
			<path class="st2" d="M121.87,38.46c-0.03-0.29-0.08-0.6-0.14-0.9l-0.1-0.45l-0.06-0.22c-0.02-0.08-0.02-0.12-0.1-0.3
				c-0.13-0.29-0.34-0.57-0.77-0.71c-0.21-0.07-0.53-0.07-0.79,0.1c-0.26,0.18-0.33,0.34-0.39,0.47c-0.11,0.27-0.14,0.49-0.11,0.78
				c0.05,0.23,0.08,0.32,0.13,0.48l0.95,3.48c0.17,0.58,0.39,1.15,0.58,1.72l0.04,0.11c0,0.02,0.05,0.13,0.09,0.16
				c0.07,0.09,0.15,0.14,0.24,0.19c0.04,0.03,0.2,0.02,0.33-0.06c0.13-0.08,0.24-0.24,0.23-0.28c-0.02-0.21-0.07-0.3-0.1-0.43
				c0,0-0.02-0.15-0.05-0.48C121.83,41.77,121.99,39.65,121.87,38.46z"/>
		</g>
		<g>
			<path class="st2" d="M111.78,43.81l-0.41-1.23l-0.22-0.61l-0.11-0.3c-0.04-0.1-0.05-0.18-0.17-0.39
				c-0.1-0.17-0.27-0.37-0.55-0.47c-0.27-0.11-0.62-0.06-0.8,0.03c-0.22,0.07-0.55,0.37-0.6,0.72c-0.06,0.33,0.01,0.55,0.06,0.71
				c0.13,0.42,0.3,0.82,0.52,1.21c0.21,0.39,0.52,0.73,0.86,1.04c0.34,0.32,0.64,0.66,0.89,1.03c0.09,0.09,0.16,0.16,0.27,0.22
				c0.12,0.06,0.27,0.04,0.37-0.02c0.26-0.09,0.34-0.46,0.25-0.69C112.04,44.65,111.93,44.22,111.78,43.81z"/>
		</g>
		<g>
			<path class="st2" d="M125.72,36.18l-0.04-0.13l-0.02-0.06c-0.01-0.04-0.03-0.1-0.05-0.14c-0.09-0.18-0.19-0.32-0.32-0.44
				c-0.1-0.1-0.21-0.17-0.31-0.21c-0.06-0.03-0.12-0.05-0.2-0.07c-0.09-0.02-0.18-0.05-0.41-0.01c-0.21,0.06-0.23,0.1-0.31,0.15
				c-0.06,0.05-0.11,0.1-0.15,0.14c-0.08,0.1-0.13,0.19-0.18,0.32c-0.1,0.3-0.05,0.46-0.03,0.6c0.03,0.13,0.05,0.19,0.08,0.29
				c0.19,0.69,0.39,1.38,0.61,2.05l0.17,0.51c0.07,0.19,0.15,0.42,0.42,0.58c0.14,0.07,0.31,0.07,0.42,0.03
				c0.1-0.03,0.23-0.1,0.31-0.23c0.07-0.13,0.06-0.26,0.04-0.35l-0.03-0.14l0.03-0.16c0.2-0.79,0.17-1.51,0.08-2.22
				C125.81,36.53,125.77,36.35,125.72,36.18z"/>
		</g>
		<g>
			<path class="st2" d="M142.93,38.46l-0.03-0.11c-0.06-0.15-0.14-0.26-0.2-0.33c-0.25-0.24-0.36-0.26-0.35-0.24
				c0,0-0.18-0.24-0.59-0.15c-0.42,0.09-0.61,0.49-0.61,0.49c0.02,0-0.02,0.1-0.07,0.29c-0.02,0.08-0.05,0.29-0.02,0.4l0.04,0.14
				c0.05,0.19,0.09,0.38,0.14,0.56c0.08,0.38,0.16,0.75,0.26,1.12c0.04,0.18,0.11,0.4,0.2,0.6c0.05,0.1,0.1,0.2,0.16,0.29
				c0.04,0.06,0.16,0.27,0.36,0.33c0.21,0.07,0.42-0.03,0.52-0.16c0.05-0.07,0.08-0.14,0.1-0.21l0.01-0.16
				c0.01-0.21,0.01-0.41,0.02-0.6c0.18-0.43,0.22-0.91,0.2-1.38c-0.01-0.24-0.04-0.47-0.09-0.71
				C142.96,38.58,142.94,38.52,142.93,38.46z"/>
		</g>
		<g>
			<path class="st2" d="M139.09,36.76c-0.05-0.09-0.13-0.21-0.26-0.32c-0.13-0.11-0.33-0.2-0.48-0.21
				c-0.34-0.02-0.43,0.01-0.73,0.17c-0.14,0.08-0.31,0.29-0.37,0.48c-0.06,0.2-0.04,0.33-0.02,0.42c0.04,0.18,0.07,0.21,0.08,0.23
				c0.05,0.15,0.08,0.29,0.12,0.44c0.16,0.6,0.24,1.16,0.52,1.79l0.09,0.23c0.05,0.08,0.01,0.12,0.17,0.31
				c0.11,0.1,0.2,0.14,0.34,0.17c0.06,0.02,0.22,0.01,0.28-0.04c0.07-0.04,0.11-0.08,0.15-0.12c0.07-0.09,0.13-0.17,0.15-0.31
				c0.01-0.09,0.01-0.17,0-0.26l-0.06-0.47c0.25-0.62,0.25-1.27,0.18-1.91C139.21,37.19,139.25,37.12,139.09,36.76z"/>
		</g>
	</g>
	<path class="st1" d="M114.2,56.41c-0.56-0.59-1.11-1.78-1.47-2.81c-0.36-1.03-0.55-1.91-0.38-1.88c1.56,0.78,2.88,1.13,3.9,1.31
		c1.02,0.18,1.72,0.19,2.04,0.29c0.12,0.04,0.19,0.72,0.18,1.52c-0.02,0.79-0.12,1.7-0.35,2.18c-0.07,0.15-0.88,0.18-1.75,0.09
		C115.5,57,114.55,56.78,114.2,56.41z"/>
	<path class="st1" d="M120.26,65.8c-0.02,0.03-0.06,0.06-0.12,0.08c-0.06,0.02-0.15,0.03-0.24,0.01s-0.2-0.08-0.29-0.14
		c-0.09-0.06-0.16-0.12-0.19-0.16c-0.38-0.5-0.75-0.99-1.12-1.49c-0.37-0.5-0.74-1-1.09-1.51c-0.27-0.38-0.52-0.77-0.76-1.16
		c-0.25-0.39-0.49-0.79-0.74-1.18c-0.13-0.21-0.26-0.41-0.39-0.62c-0.13-0.21-0.26-0.41-0.39-0.62c-0.02-0.03-0.04-0.07-0.06-0.1
		c-0.02-0.04-0.04-0.07-0.05-0.11c-0.11-0.26,0.68-0.3,1.55-0.28s1.81,0.12,1.99,0.12c0.16,0,0.27,0.41,0.39,1
		c0.12,0.59,0.25,1.37,0.45,2.11c0.26,0.95,0.56,1.94,0.77,2.7C120.16,65.19,120.3,65.73,120.26,65.8z"/>
	<path class="st1" d="M152.24,37.58c0,0,0.97-0.98,3.22-0.38c2.25,0.59,1.99,1.27,0.16,0.5C153.8,36.93,152.24,37.58,152.24,37.58z"
		/>
</g>
<path class="st0" d="M40.9,113.3c2.02-1.62,5.27-3.8,2.73-5.05c-3.93-1.94-6.04,0.57-9.8,3.03c-2.19,1.44-3.79,2.82-1.45,4.67
	C34.13,117.28,37.37,114.97,40.9,113.3z"/>
</svg>
