<svg xmlns="http://www.w3.org/2000/svg" viewBox="0 0 465.99 503.29"><path d="M147.15,18.4a34,34,0,0,0-47.93,0L8.49,109.13V211.84l59.92,59.92L234.46,105.7Z" transform="translate(0 0)" style="fill:#fff"/><path d="M447.59,318.83,234.46,105.7l-166,166.06L281.54,484.89a34,34,0,0,0,47.93,0L447.59,366.77A34,34,0,0,0,447.59,318.83Z" transform="translate(0 0)" style="fill:#02b6e8"/><path d="M453.59,312.83,246.47,105.7h0L153.16,12.39a42.44,42.44,0,0,0-59.94,0L0,105.61V215.36l56.4,56.4h0L275.53,490.89a42.42,42.42,0,0,0,59.94,0L453.59,372.77A42.42,42.42,0,0,0,453.59,312.83ZM17,208.32V112.64L105.22,24.4a25.45,25.45,0,0,1,35.93,0l81.3,81.3-105,105-49,49.05ZM441.59,360.76,323.47,478.89a25.51,25.51,0,0,1-35.93,0L80.41,271.76l154.05-154L441.59,324.84A25.43,25.43,0,0,1,441.59,360.76ZM131.66,269,308.58,445.88,408.47,346,231.55,169.08ZM308.58,421.87,155.68,269l75.87-75.87L384.45,346Z" transform="translate(0 0)" style="fill:#1d1d1b"/></svg>