<?xml version="1.0" encoding="utf-8"?>
<!-- Generator: Adobe Illustrator 24.3.0, SVG Export Plug-In . SVG Version: 6.00 Build 0)  -->
<svg version="1.1" xmlns="http://www.w3.org/2000/svg" xmlns:xlink="http://www.w3.org/1999/xlink" x="0px" y="0px"
	 viewBox="0 0 158.5 155" style="enable-background:new 0 0 158.5 155;" xml:space="preserve">
<style type="text/css">
	.st0{fill:#FFFFFF;}
	.st1{fill:none;stroke:#000000;stroke-width:7;stroke-miterlimit:10;}
</style>
<g id="icons">
	<path class="st0" d="M37.1,150.7c-5.6-0.3-11.9,0.1-17.3-1.8c-6-2.1-9.4-6.8-11.4-12.7c-2.2-6.7-1.6-14.5-1.9-21.5
		C6.2,107,5.9,99.4,5.6,91.8C5.2,79,3.5,61.1,3.6,48.3c0-8.8,1.5-12.6,2.1-21.4c0.6-8,5.8-15.1,12.8-18.8C25.8,4.2,35,5,43,5.4
		c9.1,0.5,18.3-0.7,27.4-0.7C84,4.6,96.6,5.2,110.2,5.3c4.7,0,9.4,0.1,14.2,0.3c3.9,0.2,8,0.2,11.7,1.4c6.9,2.3,12.5,8,14.9,14.7
		c1.5,4.2,1.4,8.5,1.8,12.8c0.4,4.5,0.5,8.9,0.5,13.4c0.1,9,0.7,17,0.8,26c0.2,17.9,0.5,35.7-0.6,53.6c-0.5,8.6-4.3,15.6-11.9,20.1
		c-7.3,4.4-16,3.4-24.2,3.6l-37.3,2.3L37.1,150.7z"/>
	<g>
		<path d="M154.6,21.1C152,14,146.7,7.8,140,4.5c-4.4-2.2-8.9-2.7-13.7-2.8c-7.6-0.2-15.1-0.2-22.6,0C97.3,1.8,90.9,1,84.6,1
			C75.7,1,66.8,1.5,58,1.8C49.1,2,40.3,1,31.5,1.4c-6.9,0.3-13.1,1.7-18.7,6.1c-5.9,4.6-9.9,11.1-11,18.5c-0.5,3.2-0.3,6.7-0.3,9.9
			c0,4.3,0,8.5,0,12.8c0,8.9,0.3,17.9,0.4,26.8c0.3,17,0.1,34.1,0.7,51.1c0.3,8.2,2.9,16.5,9.6,21.6c6.9,5.3,14.8,4.8,23.1,5.5
			c14.3,1.2,28.6,1.3,42.9,1.2c0.6,0,1.3,0,1.9,0c15-0.3,30.1-0.6,45.1-0.8c8.6-0.1,16.3-2.1,22.5-8.4c6.2-6.2,7.6-13.3,7.9-21.7
			c0.5-17.4,0-34.8,0.1-52.2c0-8.9,0.3-16.7,0.2-25.6c-0.1-4.8-0.1-9.5,0-14.3C155.9,28.1,155.8,24.6,154.6,21.1z M150.5,125.8
			c-0.5,8.4-4.1,15.1-11.5,19.5c-7.1,4.2-15.4,3.3-23.3,3.5c-5,0.2-9.9,0.2-14.8,0.2c0.1-2.4,0.2-4.9,0.3-7.3
			c0.2-8.4,1.5-18.2-3.4-25.3c13-2.9,27.3-7.6,31.8-21.4c2.3-7.1,2.7-14.4,2.3-21.8c-0.4-7.3-3.3-13.8-7.8-19.5
			c1.2-3.8,1.6-7.8,1.2-11.8c-0.2-2.4-1-10.2-4-10.7c-4.3-1.4-10.6,1.1-14.3,2.9c-2.8,1.4-5.5,2.9-8.1,4.6c-7.6-1.5-14.9-3-22.7-2.3
			c-5.6,0.5-11,1.9-16.5,3c-6-4.4-15.3-10.4-23-8.3c-2.7,1.3-3.3,8.2-3.5,10.9c-0.3,4,0.1,8,1.3,11.8c-4.7,5.9-8.1,12.2-8.4,19.9
			c-0.1,2.8,0.1,5.6,0.7,8.4c1.1,4.6,1.9,9.5,3.7,13.8c2.1,5,5,9.4,9.4,12.7c6.6,5,14,6.8,21.9,7.9c-1.7,2.5-2.7,5.3-3.3,8.4
			c-5.9,2.4-14,2.7-18.2-3c-2-2.2-3.1-5-5.2-7.2c-2.5-2.7-5.8-4.9-9.5-5.5c-1.6-0.2-3.1-0.3-4.7,0.3c-4.9,1.8-1.1,6.6,1.9,8
			c4,2.7,5.7,6.8,7.5,11.1c-0.3-0.8,1,2.1,1.2,2.3c0.9,1.4,1.9,2.7,3.1,3.9c3.1,2.6,6.4,4.2,10.3,5c4.2,0.9,8.5,0.4,12.7-0.4
			c0.1,3.1,0.2,6.3,0.3,9.4c-6.4-0.1-12.7-0.2-19.1-0.5c-5.4-0.2-11.4,0.1-16.6-1.7c-5.7-2-9.1-6.6-11-12.4
			c-2.1-6.5-1.5-14.1-1.8-20.9C8.9,106,8.6,98.6,8.3,91.2c-0.4-12.4-2-29.9-2-42.3c0-8.5,1.4-12.3,2-20.8C8.9,20.3,14,13.4,20.7,9.8
			c7-3.8,15.9-3,23.6-2.6C53,7.6,61.9,6.6,70.6,6.5C83.8,6.4,95.9,7,109,7.1c4.5,0,9.1,0.1,13.6,0.3c3.7,0.2,7.7,0.1,11.2,1.3
			c6.6,2.2,12,7.7,14.3,14.3c1.4,4.1,1.4,8.2,1.7,12.5c0.4,4.3,0.5,8.7,0.5,13c0.1,8.8,0.6,16.5,0.7,25.3
			C151.3,91.2,151.6,108.4,150.5,125.8z"/>
	</g>
	<path class="st1" d="M57.7,148.9c-6.4-0.1-12.7-0.2-19.1-0.5c-5.4-0.2-11.4,0.1-16.6-1.7c-5.7-2-9.1-6.6-11-12.4
		c-2.1-6.5-1.5-14.1-1.8-20.9C8.9,106,8.6,98.6,8.3,91.2c-0.4-12.4-2-29.9-2-42.3c0-8.5,1.4-12.3,2-20.8C8.9,20.3,14,13.4,20.7,9.8
		c7-3.8,15.9-3,23.6-2.6C53,7.6,61.9,6.6,70.6,6.5C83.8,6.4,95.9,7,109,7.1c4.5,0,9.1,0.1,13.6,0.3c3.7,0.2,7.7,0.1,11.2,1.3
		c6.6,2.2,12,7.7,14.3,14.3c1.4,4.1,1.4,8.2,1.7,12.5c0.4,4.3,0.5,8.7,0.5,13c0.1,8.8,0.6,16.5,0.7,25.3c0.2,17.4,0.5,34.7-0.6,52.1
		c-0.5,8.4-4.1,15.1-11.5,19.5c-7.1,4.2-15.4,3.3-23.3,3.5L57.7,148.9z"/>
</g>
<g id="Layer_2">
	<g>
		<path class="st0" d="M113.4,87c-0.1,0.9-0.2,1.8-0.6,3c-0.3,0.9-0.6,1.8-1.1,2.8c-0.2,0.3-0.4,0.7-0.6,1c-0.4,0.7-0.8,1.4-1.1,1.9
			c-0.8,0.9-1.8,1.8-2.8,2.6c-1,0.7-2.1,1.4-3.4,2c-1.2,0.6-2.4,1.1-3.7,1.5c-1.3,0.3-2.7,0.6-3.9,0.8c-0.8,0.1-1.5,0.3-2.3,0.4
			c-0.5,0.1-1.1,0.2-1.6,0.3c-1.1,0.1-2,0.2-2.9,0.2c-0.6,0-1.2,0-1.8,0c-0.4,0-0.9,0-1.3,0c-0.9,0-1.8-0.1-2.8-0.1
			c-0.3,0-0.6,0-0.9-0.1c-1.3-0.1-2.6-0.2-3.7-0.3c-0.6-0.1-1.2-0.1-1.8-0.1c-0.7,0-1.3-0.1-1.9-0.1c-0.6-0.1-1.2-0.1-1.9-0.2
			c-0.6-0.1-1.3-0.2-1.9-0.2c-0.5,0-0.9-0.1-1.4-0.2c-0.8-0.1-1.6-0.2-2.4-0.3c-0.8-0.1-1.6-0.1-2.4-0.1c-0.4,0-0.8,0-1.2,0
			c-0.3-0.1-0.6-0.1-0.8-0.2c-0.3-0.1-0.5-0.1-0.7-0.2c-0.2-0.1-0.5-0.1-0.7-0.1c-0.2,0-0.4,0-0.6,0c-0.2,0-0.4,0-0.5,0
			c-0.2,0-0.5-0.1-0.7-0.1c-1.1-0.2-2.1-0.4-3-0.7c-1.3-0.3-2.5-0.7-3.7-1.2c-1.1-0.4-2.2-1-3.4-1.7l-0.4-0.2
			c-0.9-0.5-1.7-1-2.5-1.5c-0.1-0.3-0.3-0.7-0.7-1.1c0,0,0,0,0,0c-0.8-0.8-1.7-1.6-2.3-2.6c-0.5-0.8-1-1.9-1.4-3.2
			c-0.3-1-0.5-2.2-0.7-3.5c-0.1-1.1-0.2-2.3-0.1-3.6c0,0,0-0.1,0-0.1c0-0.2,0.1-0.5,0.1-0.8c0.1-0.4,0.2-0.9,0.2-1.5
			c0.1-0.7,0.4-1.5,0.7-2.2c0.1-0.1,0.1-0.3,0.2-0.4c0.3-0.7,0.6-1.4,0.9-2c0.4-0.5,0.6-1,0.9-1.4c0.2-0.4,0.4-0.7,0.6-1
			c0.8-1,1.8-1.8,2.7-2.5c1.1-0.8,2.1-1.5,3.1-2c1.1-0.5,2.3-0.9,3.5-1.2c1.4-0.3,2.8-0.4,4.2-0.3c1.3,0.1,2.8,0.2,4.6,0.5
			c0,0,0,0,0,0c0.7,0.1,1.5,0.4,2.4,0.8c0.8,0.3,1.6,0.7,2.5,0.9c0.1,0,0.2,0,0.3,0.1c0.6,0.1,1.3,0.2,2,0.3
			c0.4,0.1,0.7,0.1,1.1,0.2c1.1,0.2,2.2,0.3,3.3,0.5c0.1,0,0.2,0,0.3,0c0.7,0,1.3-0.1,1.9-0.1c0.8-0.1,1.6-0.1,2.3,0
			c0.1,0,0.2,0,0.3,0c0.7,0,1.5,0.1,2.3,0.1c0.9,0.1,1.8,0.1,2.6,0.1c0.1,0,0.1,0,0.2,0l0.3,0c1.4-0.1,2.8-0.2,4.2-0.4
			c0.8-0.1,1.5-0.2,2.2-0.3c0.7-0.1,1.4-0.2,2.1-0.3c1.4-0.2,2.8-0.3,4.2-0.4c1.4-0.1,2.8-0.1,4.1,0c1.1,0.1,2,0.3,2.7,0.5
			c0.8,0.3,1.6,0.9,2.5,1.5c0.6,0.4,1.2,1,2,1.8c0.1,0.3,0.3,0.5,0.5,0.8c0.8,0.9,1.4,1.9,1.9,3.2c0.6,1.3,0.9,2.7,1.1,3.8l0,0.2
			c0.2,1.2,0.5,2.4,0.5,3.5c0,0.1,0,0.3,0,0.4c0,0.1,0,0.1,0,0.2C113.5,84.9,113.5,85.8,113.4,87z"/>
		<path d="M65.7,78.2c-0.5-1.9-1.6-3.6-3.2-4.7c-0.1-0.1-0.2-0.1-0.3-0.2c-0.4-0.2-0.5-0.3-0.6-0.3c-0.3-0.2-0.6-0.4-0.9-0.5
			c-2.1-0.6-4.1-0.3-5.9,1.1c-1.3,1-2.4,2.4-3.2,4.1c-0.7,1.4-1.2,3-1.5,4.5c-0.1,0.3-0.1,0.6,0,0.9c0.1,0.5,0.2,1.1,0.3,1.7
			c0.1,0.6,0.2,1.3,0.3,1.9c0.3,1.6,0.8,3.1,1.6,4.3c1,1.6,2.4,2.6,4.2,3c0,0,0.1,0,0.1,0c0.4,0.1,1,0.2,1.7,0.2c0.9,0,2-0.2,3-1
			c1.7-1.3,3-2.9,3.7-4.7C65.9,86.8,66.2,80,65.7,78.2z M54.7,80.6c0.5-1,2.1-2.9,2.8-3.4c0.5-0.4,1-0.5,1.5-0.5
			c0.3,0.2,0.8,0.2,1.2,0.4c0.7,0.5,1.9,3,2.1,3.8c0.1,0.4-2.4-2.2-3.8-2.1C57,78.9,54.5,81,54.7,80.6z"/>
		<path d="M117.9,83.6c0-1.6-0.3-3.2-0.6-4.7l0-0.2c-0.3-1.3-0.6-3.1-1.4-4.8c-0.7-1.6-1.5-2.9-2.5-4.1c-0.1-0.3-0.3-0.6-0.6-0.9
			c-0.7-0.8-1.7-1.8-2.9-2.6c-1.1-0.8-2.2-1.6-3.5-2.1c-1.2-0.5-2.5-0.7-4.1-0.8c0,0,0,0-0.1,0c-1.5-0.1-3-0.1-4.6,0
			c-1.5,0.1-3.1,0.3-4.5,0.5c-0.8,0.1-1.5,0.2-2.3,0.3c-0.7,0.1-1.4,0.2-2.1,0.3c-1.3,0.2-2.6,0.3-4,0.4l-0.2,0
			c-0.7,0-1.5-0.1-2.3-0.1c-0.8-0.1-1.7-0.1-2.5-0.1c-1.2-0.1-2.2-0.1-3.2,0c-0.5,0-1,0.1-1.4,0.1c-1-0.1-1.9-0.2-2.9-0.4
			c-0.3-0.1-0.6-0.1-1-0.2c-0.7-0.1-1.4-0.3-2.1-0.3c-0.6-0.2-1.2-0.4-1.8-0.6c-1-0.4-2.2-0.9-3.5-1.1c-1.9-0.3-3.5-0.4-4.9-0.5
			c-1.8-0.1-3.5,0-5.3,0.4c0,0,0,0,0,0c-1.5,0.3-3.1,0.8-4.5,1.5c-1.4,0.6-2.7,1.5-4,2.5c-1.2,0.9-2.4,2-3.4,3.3c0,0,0,0,0,0.1
			c-0.4,0.6-0.7,1-0.9,1.5c-0.2,0.4-0.4,0.7-0.6,1c0,0.1-0.1,0.1-0.1,0.2c-0.6,0.9-1,1.9-1.3,2.7c-0.1,0.1-0.1,0.3-0.2,0.4
			c-0.4,1-0.9,2.2-1.1,3.6c0,0.1,0,0.2,0,0.3c0,0.2-0.1,0.5-0.1,0.8c-0.1,0.4-0.2,1-0.2,1.6c-0.1,1.5,0,3,0.2,4.3
			c0.2,1.5,0.4,2.9,0.9,4.4c0.6,1.7,1.1,3,1.8,4.2c0.8,1.3,1.8,2.4,2.8,3.3c0,0,0,0,0,0c0.1,0.3,0.4,0.7,0.7,1.1
			c0.1,0.1,0.1,0.1,0.2,0.2c1.1,0.9,2.4,1.6,3.5,2.2l0.4,0.2c1.3,0.7,2.6,1.4,4,2c1.4,0.5,2.8,0.9,4.2,1.3c1.1,0.3,2.2,0.5,3.3,0.7
			c0.3,0.1,0.6,0.1,0.9,0.2c0.1,0,0.3,0,0.4,0c0.2,0,0.4,0,0.6,0c0.1,0,0.3,0,0.4,0c0.3,0.1,0.5,0.1,0.7,0.2
			c0.3,0.1,0.5,0.1,0.7,0.2c0.2,0.1,0.4,0.1,0.6,0.1c0.5,0,1,0,1.6,0.1c0.8,0,1.5,0.1,2.2,0.1c0.8,0.1,1.5,0.2,2.3,0.2
			c0.5,0.1,1,0.1,1.4,0.2c0.6,0.1,1.2,0.1,1.8,0.2c0.6,0.1,1.3,0.2,1.9,0.2c0.8,0.1,1.5,0.1,2.2,0.1c0.6,0,1.1,0.1,1.6,0.1
			c1.2,0.1,2.5,0.2,3.9,0.3c0.3,0,0.6,0,0.9,0c1,0.1,2,0.1,3,0.1c0.4,0,0.8,0,1.2,0c0.4,0,0.9,0,1.3,0c0.2,0,0.5,0,0.7,0
			c1.1,0,2.1-0.1,3.3-0.2c0,0,0.1,0,0.1,0c0.5-0.1,1.1-0.2,1.6-0.3c0.8-0.1,1.7-0.2,2.5-0.4c1.3-0.2,2.7-0.5,4.2-0.9
			c0,0,0.1,0,0.1,0c1.6-0.5,3.1-1.2,4.4-1.8c1.6-0.8,3-1.6,4.2-2.4c1.3-1,2.5-2.1,3.6-3.3c0,0,0.1-0.1,0.1-0.1
			c0.6-0.7,1-1.6,1.5-2.4c0.2-0.3,0.4-0.7,0.6-1c0,0,0.1-0.1,0.1-0.2c0.6-1.2,1.1-2.4,1.4-3.6c0.4-1.5,0.7-2.7,0.8-3.9
			c0.1-1.1,0.1-2.3,0-3.5C117.9,83.7,117.9,83.7,117.9,83.6z M113.4,87c-0.1,0.9-0.2,1.8-0.6,3c-0.3,0.9-0.6,1.8-1.1,2.8
			c-0.2,0.3-0.4,0.7-0.6,1c-0.4,0.7-0.8,1.4-1.1,1.9c-0.8,0.9-1.8,1.8-2.8,2.6c-1,0.7-2.1,1.4-3.4,2c-1.2,0.6-2.4,1.1-3.7,1.5
			c-1.3,0.3-2.7,0.6-3.9,0.8c-0.8,0.1-1.5,0.3-2.3,0.4c-0.5,0.1-1.1,0.2-1.6,0.3c-1.1,0.1-2,0.2-2.9,0.2c-0.6,0-1.2,0-1.8,0
			c-0.4,0-0.9,0-1.3,0c-0.9,0-1.8-0.1-2.8-0.1c-0.3,0-0.6,0-0.9-0.1c-1.3-0.1-2.6-0.2-3.7-0.3c-0.6-0.1-1.2-0.1-1.8-0.1
			c-0.7,0-1.3-0.1-1.9-0.1c-0.6-0.1-1.2-0.1-1.9-0.2c-0.6-0.1-1.3-0.2-1.9-0.2c-0.5,0-0.9-0.1-1.4-0.2c-0.8-0.1-1.6-0.2-2.4-0.3
			c-0.8-0.1-1.6-0.1-2.4-0.1c-0.4,0-0.8,0-1.2,0c-0.3-0.1-0.6-0.1-0.8-0.2c-0.3-0.1-0.5-0.1-0.7-0.2c-0.2-0.1-0.5-0.1-0.7-0.1
			c-0.2,0-0.4,0-0.6,0c-0.2,0-0.4,0-0.5,0c-0.2,0-0.5-0.1-0.7-0.1c-1.1-0.2-2.1-0.4-3-0.7c-1.3-0.3-2.5-0.7-3.7-1.2
			c-1.1-0.4-2.2-1-3.4-1.7l-0.4-0.2c-0.9-0.5-1.7-1-2.5-1.5c-0.1-0.3-0.3-0.7-0.7-1.1c0,0,0,0,0,0c-0.8-0.8-1.7-1.6-2.3-2.6
			c-0.5-0.8-1-1.9-1.4-3.2c-0.3-1-0.5-2.2-0.7-3.5c-0.1-1.1-0.2-2.3-0.1-3.6c0,0,0-0.1,0-0.1c0-0.2,0.1-0.5,0.1-0.8
			c0.1-0.4,0.2-0.9,0.2-1.5c0.1-0.7,0.4-1.5,0.7-2.2c0.1-0.1,0.1-0.3,0.2-0.4c0.3-0.7,0.6-1.4,0.9-2c0.4-0.5,0.6-1,0.9-1.4
			c0.2-0.4,0.4-0.7,0.6-1c0.8-1,1.8-1.8,2.7-2.5c1.1-0.8,2.1-1.5,3.1-2c1.1-0.5,2.3-0.9,3.5-1.2c1.4-0.3,2.8-0.4,4.2-0.3
			c1.3,0.1,2.8,0.2,4.6,0.5c0,0,0,0,0,0c0.7,0.1,1.5,0.4,2.4,0.8c0.8,0.3,1.6,0.7,2.5,0.9c0.1,0,0.2,0,0.3,0.1
			c0.6,0.1,1.3,0.2,2,0.3c0.4,0.1,0.7,0.1,1.1,0.2c1.1,0.2,2.2,0.3,3.3,0.5c0.1,0,0.2,0,0.3,0c0.7,0,1.3-0.1,1.9-0.1
			c0.8-0.1,1.6-0.1,2.3,0c0.1,0,0.2,0,0.3,0c0.7,0,1.5,0.1,2.3,0.1c0.9,0.1,1.8,0.1,2.6,0.1c0.1,0,0.1,0,0.2,0l0.3,0
			c1.4-0.1,2.8-0.2,4.2-0.4c0.8-0.1,1.5-0.2,2.2-0.3c0.7-0.1,1.4-0.2,2.1-0.3c1.4-0.2,2.8-0.3,4.2-0.4c1.4-0.1,2.8-0.1,4.1,0
			c1.1,0.1,2,0.3,2.7,0.5c0.8,0.3,1.6,0.9,2.5,1.5c0.6,0.4,1.2,1,2,1.8c0.1,0.3,0.3,0.5,0.5,0.8c0.8,0.9,1.4,1.9,1.9,3.2
			c0.6,1.3,0.9,2.7,1.1,3.8l0,0.2c0.2,1.2,0.5,2.4,0.5,3.5c0,0.1,0,0.3,0,0.4c0,0.1,0,0.1,0,0.2C113.5,84.9,113.5,85.8,113.4,87z"/>
		<path d="M104.8,77.1c0-0.1-0.1-0.2-0.1-0.3c-1.3-2.3-3.2-3.9-5.3-4.5c-0.2-0.1-0.4-0.1-0.7-0.1c-2.1-0.1-3.9,0.6-5.1,2.1
			c-1.1,1.3-1.6,2.9-2,4.2c-0.3,1.2-1,4-1.1,4.5c-0.4,1.9-0.4,3.6,0.1,5.2c0.5,1.5,1.6,2.9,3.2,4.2c0.1,0,0.1,0.1,0.2,0.1
			c1.4,0.9,2.7,1.2,4,1.2c0.6,0,1.2-0.1,1.8-0.1c0,0,0.1,0,0.1,0c3.7-0.7,5-4.2,5.6-5.7c0-0.1,0.1-0.2,0.1-0.2
			c0.5-2.1,0.6-4.2,0.6-6c0-0.1,0-0.3,0-0.4C105.8,79.5,105.1,77.8,104.8,77.1z M102.6,79.9c0.2,0.5-3.3-1.3-4.6-1.2
			c-1.2,0.1-3.9,1.6-3.8,1.4c0.2-0.8,1.8-3,2.3-3.6c0,0,1.9-1.1,3.2-0.5C101.2,76.9,102.2,79.3,102.6,79.9z"/>
	</g>
</g>
</svg>
