<?xml version="1.0" encoding="utf-8"?>
<!-- Generator: Adobe Illustrator 24.2.1, SVG Export Plug-In . SVG Version: 6.00 Build 0)  -->
<svg version="1.1" id="Layer_1" xmlns="http://www.w3.org/2000/svg" xmlns:xlink="http://www.w3.org/1999/xlink" x="0px" y="0px"
	 viewBox="0 0 235.2 156.8" style="enable-background:new 0 0 235.2 156.8;" xml:space="preserve">
<style type="text/css">
	.st0{fill:#1B1C1C;}
	.st1{fill:#FFFFFF;}
	.st2{fill:#111110;}
</style>
<path class="st0" d="M138,134.6c-17.8,5.2-36.3,5.4-54.7,4.8c-9.6-0.3-19.1-1.6-28.3-3.8c-63.5-14.6-59.7-63.9-28.6-92
	c22.1-20,51.3-25.3,87.4-29.6c20.5-2.6,45.7-3.3,70,4.7c10.8,3.6,20.1,7.1,28.3,14c11.6,9.7,17.8,20.9,18.8,32.2
	c1.3,14.7-6.2,29.8-22,42.8c-9.4,7.6-20,10.2-31.5,15C173,124.7,138,134.6,138,134.6z"/>
<g>
	<g>
		<path class="st0" d="M226.1,145.8c0.5,2.1-1.7,3.8-3.6,2.8c-5.3-2.9-8.5-7.2-11.1-11.9c-0.7-1.2-2.2-2.8-0.6-4.3
			c1.3-1.2,3.1-0.9,4.5-0.1C220.6,135.2,224.6,139.2,226.1,145.8z"/>
		<path class="st0" d="M218.5,126.6c-1-1.9-1-3.8,0.9-4.1c4.9-0.7,9.7,0,13.2,4c1.5,1.8,0.2,4-1.6,4.7
			C225.5,133.1,221.9,129.7,218.5,126.6z"/>
		<path class="st0" d="M207.8,150.9c-0.2,1.7-2.4,2.3-3.4,0.9c-3-3.8-4.3-7.4-3.7-11.7c0.2-1.2,1.6-2.4,2.9-1.3
			C207.1,142,208.4,145.9,207.8,150.9z"/>
	</g>
	<path class="st1" d="M168.6,119.9c10.2-3.7,21.4-6.5,30.3-12.3c20.9-13.5,28-28.1,26.6-41.4c-1.6-15.7-15-29.6-31.2-37.6
		c-19.8-9.7-40.9-10-63.7-9.4c-35.4,0.8-67.8,4-98.2,25.9c-20.1,14.4-25,29.3-19,50.8c5.6,20.4,23.7,29.9,46.1,34.5
		c23.4,4.8,47.3,4.1,70.8-0.7L168.6,119.9z"/>
</g>
<g>
	<g>
		<path class="st2" d="M36,60.3c0.3,0,0.7,0.1,0.9,0.3s0.5,0.3,0.8,0.5s0.5,0.4,0.7,0.5s0.5,0.2,0.9,0.3c0.6,0.5,1.2,1.1,1.9,1.7
			s1.4,1.1,2.1,1.5c0.1,0.5,0.3,0.9,0.6,1.2c0.3,0.3,0.6,0.6,1,0.9c0.4,0.3,0.7,0.6,1,0.9s0.5,0.7,0.6,1.1c0.3,0.1,0.5,0.3,0.7,0.6
			s0.3,0.5,0.4,0.7c0.1,0.3,0.2,0.5,0.3,0.8c0.1,0.3,0.3,0.5,0.5,0.7c0.4,1.2,0.7,2.5,0.8,3.8c0.1,1.3,0.4,2.6,0.7,3.9
			c-0.1,1.2-0.3,2.4-0.4,3.6c-0.2,1.2-0.5,2.3-0.9,3.5s-1,2.1-1.8,3c-0.8,0.9-1.8,1.6-3,2.1c-0.5,0.5-1,0.9-1.7,1.1
			c-0.7,0.2-1.2,0.6-1.8,1c-0.6,0.3-1.2,0.5-1.7,0.6c-0.6,0.1-1.2,0.2-1.8,0.3c-0.6,0-1.2,0.1-1.8,0.1c-0.6,0-1.3,0.1-1.9,0.3
			c-0.4-0.2-1-0.3-1.6-0.3c-0.6,0-1.2,0-1.7-0.1c-0.5-0.1-1-0.2-1.5-0.5c-0.4-0.3-0.7-0.8-0.8-1.6c-0.2-1.2,0-2.3,0.4-3.3
			c0.2-0.3,0.4-0.6,0.7-0.8c0.3-0.2,0.6-0.3,0.9-0.5s0.5-0.3,0.8-0.6c0.2-0.2,0.4-0.5,0.6-0.9c0.3-2,0.5-4,0.4-6.2S31.2,76.1,31,74
			c-0.1-1-0.1-1.9-0.1-2.9c0-1,0-2-0.1-3c-0.2-0.2-0.3-0.3-0.3-0.6c0-0.2-0.1-0.4-0.2-0.7c-0.1-0.2-0.2-0.4-0.3-0.5
			s-0.4-0.1-0.7-0.1c-0.4-0.2-0.9-0.3-1.4-0.4c-0.5-0.1-0.9-0.3-1.1-0.8c0-0.5,0-1-0.1-1.6c0-0.5,0-1,0-1.5c0.1-0.5,0.2-0.9,0.4-1.3
			c0.2-0.4,0.6-0.7,1.2-0.9c1.2-0.4,2.5-0.6,3.9-0.5C33.6,59.4,34.9,59.7,36,60.3z M37,68.5c-0.2,0.6-0.3,1.3-0.3,2
			c0,0.7-0.1,1.4-0.3,2c0.2,2.3,0.3,4.7,0.4,7.2c0,2.5,0.3,4.8,0.7,7.1c0.8-0.1,1.5-0.3,2.1-0.6c0.7-0.3,1.2-0.8,1.6-1.3
			c0.3-0.1,0.6-0.3,0.8-0.5c0.2-0.2,0.4-0.5,0.5-0.7s0.2-0.5,0.3-0.8c0.1-0.3,0.3-0.5,0.4-0.8c0-1,0.1-2,0.1-3c0-1.1-0.2-2-0.6-2.9
			c-0.3-1.2-0.8-2.3-1.5-3.3c-0.7-1-1.5-2-2.3-2.9c-0.4-0.2-0.8-0.5-1-0.8C37.7,68.6,37.4,68.5,37,68.5z"/>
	</g>
	<g>
		<path class="st2" d="M68.4,70.2c0.7,0.6,1.3,1.3,1.7,2.1c0.4,0.8,0.7,1.6,0.9,2.4c0.2,0.9,0.3,1.8,0.4,2.6
			c0.1,0.9,0.2,1.8,0.4,2.7c0.1,1.5-0.4,2.7-1.6,3.6c-0.5,0.4-1.1,0.7-1.7,0.9c-0.6,0.2-1.3,0.4-1.9,0.5s-1.4,0.2-2.1,0.3
			c-0.7,0.1-1.4,0.2-2.1,0.3c-0.2,0.2-0.4,0.3-0.7,0.3S61.2,86,61,86.2c-0.1,0.6,0.1,1.1,0.5,1.4c0.4,0.3,0.7,0.7,1.1,1
			c0.6,0.2,1.3,0.3,1.9,0.3c0.6,0,1.3,0,1.9-0.1c0.6-0.1,1.3-0.2,1.9-0.3c0.6-0.1,1.2-0.2,1.9-0.3l1.4,0.8c0.4,0.6,0.7,1.2,1,1.9
			c0.3,0.7,0.3,1.5-0.2,2.3c-0.2,0.6-0.5,1-0.9,1.3c-0.4,0.3-0.9,0.5-1.4,0.7s-1.1,0.2-1.7,0.2c-0.6,0-1.2,0.1-1.7,0.1
			c-0.5,0-0.9,0-1.4,0.1c-0.5,0.1-0.9,0.1-1.3,0.2c-0.4,0.1-0.8,0.1-1.3,0.1s-0.9-0.2-1.3-0.4c-0.6-0.4-1.3-0.7-2.2-1.1
			c-0.8-0.4-1.5-0.8-2.2-1.3s-1.3-1-1.7-1.7s-0.7-1.4-0.7-2.4c0.1-0.6,0.1-1-0.1-1.4S54,87,54,86.5l-0.1-7.2
			c0.3-0.2,0.5-0.5,0.5-0.8s0.2-0.7,0.4-0.9c-0.1-0.8,0.1-1.5,0.5-2.2c0.4-0.6,0.8-1.3,1-2c0.3-0.3,0.6-0.7,0.8-1
			c0.2-0.3,0.5-0.7,0.7-1s0.5-0.7,0.8-1c0.3-0.3,0.7-0.5,1.1-0.7c0.4-0.3,0.9-0.6,1.5-0.8s1.1-0.4,1.7-0.4c0.6-0.1,1.2-0.1,1.7,0
			c0.6,0.1,1.1,0.3,1.6,0.6c0.2,0.3,0.5,0.5,0.9,0.7C67.6,69.9,68,70,68.4,70.2z M62.9,75.9c-0.4,0.5-0.7,1-1,1.6
			c-0.2,0.6-0.3,1.1-0.1,1.8c0.5,0.1,1,0.2,1.5,0.2c0.5,0,1-0.1,1.5-0.2c0.2-0.4,0.3-0.9,0.1-1.3c-0.1-0.4-0.2-0.8-0.2-1.3
			c-0.1-0.2-0.1-0.4-0.3-0.6c-0.2-0.2-0.3-0.4-0.5-0.5c-0.2-0.1-0.4-0.2-0.6-0.2C63.3,75.4,63.1,75.6,62.9,75.9z"/>
	</g>
	<g>
		<path class="st2" d="M83.3,68.1c0.7,0,1.3-0.2,1.8-0.6c0.5-0.4,1.2-0.6,1.8-0.6c1,0,1.9,0.1,2.8,0.4s1.7,0.6,2.6,0.7
			c1,0.6,1.8,1.2,2.4,2c0.7,0.8,1.4,1.6,2.1,2.3c0.7,2.7,0.7,5.2,0.1,7.7c-0.6,2.5-1.4,4.8-2.7,6.8c-0.5,0.4-1.1,0.7-1.6,1.1
			c-0.5,0.3-1.1,0.5-1.8,0.4c-0.2,0.2-0.4,0.3-0.7,0.3s-0.6,0-0.9,0c-0.3,0-0.6-0.1-1-0.1s-0.6,0-0.8,0.1c-0.5,0.1-1,0-1.4-0.2
			s-0.9-0.3-1.3-0.5c-0.4-0.2-0.9-0.2-1.3-0.2c-0.4,0-0.8,0.2-1.2,0.7c-0.4,1.7-0.6,3.4-0.6,5.1c0.1,1.7,0.1,3.4,0,5.3
			c-0.1,1.3,0,2.5,0.2,3.8s0.2,2.6,0,3.8c0,0.7-0.2,1.3-0.4,1.8c-0.3,0.5-0.8,0.9-1.4,1c-0.5,0.2-0.9,0.2-1.3,0.1
			c-0.4-0.2-0.9-0.3-1.3-0.4c-0.5-0.4-0.9-0.9-1.4-1.4c-0.4-0.5-0.6-1.1-0.5-1.8c0-1.1,0.1-2.2,0.1-3.4c0.1-1.2,0.1-2.3,0.1-3.5
			c-0.2-0.5-0.3-0.9-0.2-1.3s0.1-0.8,0.2-1.2c0.1-0.4,0.2-0.8,0.2-1.2c0.1-0.4,0-0.9-0.1-1.4c0-0.3,0-0.6,0-1c0-0.4,0-0.7,0-1
			c0.4-0.6,0.5-1.2,0.3-1.9c-0.2-0.7-0.3-1.3-0.3-1.9c0.2-0.8,0.3-1.7,0.2-2.6c-0.1-0.9,0.1-1.8,0.4-2.6c0-0.7,0-1.4,0-2.1
			c0-0.7,0.2-1.3,0.5-1.9c0.1-0.8,0-1.6-0.1-2.4c-0.1-0.8,0.1-1.5,0.5-2.1c-0.1-0.5-0.1-1.1-0.1-1.5c0-0.5,0.1-0.9,0.2-1.4
			s0.1-0.9,0.2-1.4c0-0.5-0.1-0.9-0.2-1.4c0.1-0.7,0.3-1.2,0.9-1.6c0.5-0.4,1.1-0.8,1.7-1.1c0.8,0,1.4,0.3,1.9,0.7
			C82.4,67,82.9,67.5,83.3,68.1z M87.9,72.8c-0.8,0.1-1.6,0.4-2.3,0.9c-0.7,0.5-1.4,1.1-2,1.6c0,0.5,0,1-0.1,1.5
			c-0.1,0.5-0.2,1.1-0.2,1.6c0,0.5,0,1,0.1,1.5c0.1,0.5,0.3,0.9,0.6,1.3c0.7,0.8,1.5,1.1,2.4,1.2c1,0,1.9-0.1,2.8-0.3
			c0.4-0.4,0.7-0.8,0.9-1.3c0.2-0.5,0.3-1,0.3-1.6c0.1-0.6,0.1-1.1,0.1-1.7c0-0.6,0-1.1,0.1-1.6c-0.1-0.3-0.3-0.6-0.4-1
			c-0.1-0.3-0.3-0.7-0.5-1s-0.4-0.6-0.7-0.8C88.6,73,88.3,72.9,87.9,72.8z"/>
	</g>
	<g>
		<path class="st2" d="M103.7,57.2c0,0.2,0,0.4,0.1,0.6s0.2,0.3,0.3,0.4s0.2,0.3,0.3,0.4c0.1,0.2,0.1,0.3,0.1,0.5
			c-0.2,1.5-0.9,2.6-2.2,3.4c-0.3,0.1-0.6,0.1-1,0.1c-0.3,0-0.7-0.1-1-0.3c-0.4-0.3-0.7-0.6-1-0.9c-0.3-0.4-0.5-0.8-0.6-1.2
			c0.1-1.6,0.7-2.9,1.8-4c0.5-0.3,1.1-0.3,1.8-0.2C103,56.2,103.4,56.6,103.7,57.2z M101.6,67.9c-0.5,0.1-0.8,0.2-1.2,0.5
			s-0.5,0.7-0.6,1.1c0.3,1.9,0.5,3.8,0.6,5.6s0.1,3.6,0,5.6c0,1,0,1.9,0,2.7c0.1,0.8,0,1.6-0.1,2.5c0.2,0.7,0.2,1.4,0.1,2
			c-0.1,0.6-0.3,1.3-0.4,1.9s-0.2,1.2-0.2,1.8c0,0.6,0.3,1.2,0.7,1.8c0.3,0.4,0.7,0.6,1.1,0.8s0.9,0.3,1.3,0.5l1.3-0.4
			c0.4-0.4,0.8-0.9,1.2-1.4c0.4-0.5,0.5-1.1,0.2-1.7c0-0.5,0-1,0-1.7c0-0.6,0-1.2,0-1.7c0.2-1.1,0.2-2.3-0.1-3.4s-0.4-2.2-0.4-3.4
			c0.2-0.9,0.2-1.9,0.2-2.8s-0.2-1.8-0.3-2.7c-0.2-0.9-0.3-1.8-0.4-2.6c-0.1-0.9-0.2-1.8-0.3-2.7c-0.3-0.4-0.5-0.8-0.5-1.2
			c-0.3-0.4-0.7-0.6-1.1-0.8C102.5,68,102.1,67.9,101.6,67.9z"/>
	</g>
	<g>
		<path class="st2" d="M126.1,68.9c0.5,0.3,0.8,0.7,1.1,1.1s0.4,0.9,0.5,1.4s0.2,1,0.2,1.5c0.1,0.5,0.1,0.9,0.3,1.4
			c-0.2,0.4-0.4,0.7-0.4,1.1s-0.1,0.8-0.2,1.1c-0.5,0.2-1.1,0.4-1.6,0.6c-0.5,0.2-1,0.2-1.6,0c-0.6-0.4-1.1-0.8-1.6-1.1
			s-0.9-0.8-1.1-1.5c-0.2-0.2-0.5-0.3-0.8-0.4s-0.6-0.1-0.9,0.1c-1.3,1.4-2.2,3-2.7,4.8s-0.8,3.6-1.1,5.5c0,0.3,0,0.6,0.2,0.8
			c0.1,0.2,0.3,0.4,0.5,0.5c0.2,0.1,0.4,0.3,0.7,0.4c0.3,0.1,0.5,0.3,0.7,0.4c0.2,0,0.4,0,0.5-0.1c0.2-0.1,0.3-0.2,0.4-0.3
			c0.1-0.1,0.3-0.2,0.4-0.4c0.1-0.1,0.3-0.2,0.4-0.1c0.6-0.9,1.4-1.7,2.4-2.4s2.1-0.8,3.3-0.5c0.3,0,0.6,0.1,0.7,0.3
			c0.2,0.2,0.4,0.3,0.5,0.6c0.2,0.2,0.3,0.4,0.5,0.7c0.1,0.2,0.3,0.4,0.5,0.6c0.2,0.6,0.3,1.2,0.2,1.6c-0.1,0.5-0.3,0.9-0.5,1.3
			c-0.2,0.4-0.5,0.7-0.9,1.1c-0.3,0.3-0.6,0.7-0.9,1.1c-0.5,0.1-1,0.3-1.5,0.6c-0.4,0.3-0.9,0.7-1.3,1s-0.9,0.6-1.4,0.8
			s-1,0.2-1.7,0.1c-1.6,0.2-3.1,0-4.5-0.6c-1.4-0.6-2.7-1.3-3.9-2.1c-0.8-0.5-1.3-1.1-1.5-1.8s-0.4-1.5-0.5-2.3s-0.1-1.7,0-2.5
			c0.1-0.9,0.1-1.7,0-2.4c0.5-0.8,0.8-1.6,1.1-2.4c0.2-0.8,0.5-1.7,0.7-2.5s0.5-1.6,0.9-2.4c0.4-0.8,0.9-1.5,1.6-2.1
			c0.4-0.9,1-1.7,1.8-2.3c0.8-0.6,1.6-1.2,2.5-1.7c1.4-0.4,2.9-0.4,4.3-0.2C123.8,67.5,125,68,126.1,68.9z"/>
	</g>
	<g>
		<path class="st2" d="M140,55.2c0.3,0.6,0.4,1.2,0.4,1.8c0,0.6,0,1.3,0,2s-0.1,1.3-0.1,2c0,0.7,0.1,1.3,0.3,2
			c0.4,0.1,0.8,0.2,1.3,0.2s0.9,0.1,1.4,0.1c0.4,0,0.9,0.1,1.2,0.3s0.7,0.5,1,0.9c0.2,0.3,0.3,0.7,0.3,1.2s0,0.8-0.1,1.1
			c-0.2,0.4-0.4,0.7-0.7,0.8s-0.6,0.3-0.9,0.4c-0.4,0.1-0.7,0.2-1,0.2c-0.4,0.1-0.7,0.2-1,0.4c-0.4-0.1-0.7-0.1-1,0
			s-0.6,0.2-0.7,0.6c-0.3,0.4-0.4,0.8-0.4,1.2c0,0.4,0,0.9,0.1,1.3c0.1,0.4,0.1,0.9,0.1,1.3s-0.1,0.9-0.2,1.3c0,1.3,0.3,2.5,0.7,3.7
			s0.8,2.3,1.2,3.5c0.6,0.8,1.3,1.4,2.1,1.8c0.8,0.3,1.6,0.7,2.4,1.1c0.5,0.8,0.8,1.8,0.9,2.8c-0.2,0.4-0.4,0.8-0.8,1.1
			c-0.3,0.3-0.7,0.6-1,0.9c-0.9,0.1-1.8,0.2-2.7,0.2c-0.9,0-1.7-0.3-2.3-1c-0.5-0.1-0.9-0.2-1.3-0.5c-0.3-0.3-0.7-0.6-0.9-0.9
			c-0.3-0.3-0.6-0.7-0.8-1.1c-0.3-0.4-0.6-0.7-0.9-0.9c-0.2-0.2-0.4-0.5-0.5-0.8c-0.1-0.3-0.2-0.6-0.3-0.9c-0.1-0.3-0.2-0.6-0.3-0.9
			c-0.1-0.3-0.3-0.5-0.6-0.8c-0.4-1.3-0.7-2.7-0.9-4.1s-0.3-2.8,0-4.1c0-0.3,0-0.6-0.1-0.8s-0.2-0.5-0.2-0.8s-0.1-0.5-0.2-0.8
			c-0.1-0.3,0-0.5,0.1-0.8c-0.2-0.3-0.4-0.4-0.7-0.3c-0.3,0.1-0.5,0.1-0.8-0.1c-0.6-0.3-1.1-0.7-1.6-1.1c-0.5-0.4-0.8-1-0.8-1.8
			l0.3-1.8c0.6-0.6,1.2-1,1.9-1.2c0.7-0.2,1.4-0.4,2.1-0.6c0.4-0.6,0.6-1.3,0.8-2c0.1-0.7,0.3-1.4,0.3-2.2c0.1-0.7,0.2-1.5,0.3-2.2
			c0.1-0.7,0.3-1.4,0.5-2c0.2-0.5,0.5-0.8,0.9-1c0.4-0.2,0.8-0.2,1.3-0.2s0.9,0.2,1.3,0.5C139.5,54.5,139.8,54.8,140,55.2z"/>
	</g>
	<g>
		<path class="st2" d="M158.8,66.3l6.1-0.2c0.3,0.2,0.7,0.4,1,0.8s0.7,0.7,1,1c-0.1,0.6-0.2,1.1-0.3,1.7c-0.1,0.5-0.4,1-0.8,1.4
			c-0.3,0.3-0.7,0.6-1.2,0.7c-0.4,0.1-0.9,0.2-1.4,0.3s-1,0.1-1.5,0.1c-0.5,0-1,0.1-1.4,0.2c-1.3-0.1-2.6,0-3.7,0.2
			c-1.1,0.3-2.4,0.4-3.8,0.4c-0.8,0-1.5-0.4-2-1.1c-0.1-0.4-0.3-0.7-0.6-1.1c-0.3-0.3-0.5-0.7-0.4-1.2c-0.1-0.2-0.1-0.4,0-0.8
			c0.1-0.3,0.2-0.6,0.3-0.8c0.4-0.6,0.9-1,1.6-1.2s1.3-0.3,2-0.1c0.8,0.3,1.7,0.3,2.6,0.1C157.1,66.5,157.9,66.3,158.8,66.3z"/>
	</g>
	<g>
		<path class="st2" d="M176.7,52.2c0,0.2,0,0.4,0.1,0.6s0.2,0.3,0.3,0.4s0.2,0.3,0.3,0.4c0.1,0.2,0.1,0.3,0.1,0.5
			c-0.2,1.5-0.9,2.6-2.1,3.4c-0.3,0.1-0.6,0.1-1,0.1c-0.4,0-0.7-0.1-1-0.3c-0.4-0.3-0.7-0.6-1-0.9c-0.3-0.4-0.5-0.8-0.6-1.2
			c0.1-1.6,0.7-2.9,1.8-4c0.5-0.3,1.1-0.3,1.8-0.2C175.9,51.2,176.4,51.6,176.7,52.2z M174.6,62.9c-0.5,0.1-0.9,0.2-1.1,0.5
			c-0.3,0.3-0.5,0.7-0.6,1.1c0.3,1.9,0.5,3.8,0.6,5.6s0.1,3.6,0.1,5.6c0,1,0,1.9,0,2.7s0,1.6-0.1,2.5c0.2,0.7,0.2,1.4,0.1,2
			c-0.1,0.6-0.3,1.3-0.4,1.9s-0.2,1.2-0.2,1.8c0,0.6,0.3,1.2,0.7,1.8c0.3,0.4,0.6,0.6,1.1,0.8c0.4,0.1,0.9,0.3,1.3,0.5l1.3-0.4
			c0.4-0.4,0.8-0.9,1.2-1.4s0.5-1.1,0.2-1.7c0-0.5,0-1,0-1.7c0-0.6,0-1.2,0-1.7c0.2-1.1,0.2-2.3-0.1-3.4c-0.3-1.1-0.4-2.2-0.4-3.4
			c0.2-0.9,0.2-1.9,0.1-2.8c-0.1-0.9-0.2-1.8-0.3-2.7s-0.3-1.8-0.4-2.6c-0.1-0.9-0.2-1.8-0.3-2.7c-0.3-0.4-0.5-0.8-0.5-1.2
			c-0.3-0.4-0.7-0.6-1.1-0.8C175.5,63,175,62.9,174.6,62.9z"/>
	</g>
	<g>
		<path class="st2" d="M191.5,53.2c0.3,0.6,0.4,1.2,0.4,1.8c0,0.6,0,1.3,0,2s-0.1,1.3-0.1,2c0,0.7,0.1,1.3,0.3,2
			c0.4,0.1,0.8,0.2,1.3,0.2s0.9,0.1,1.4,0.1c0.4,0,0.9,0.1,1.2,0.3s0.7,0.5,1,0.9c0.2,0.3,0.3,0.7,0.3,1.2s0,0.8-0.1,1.1
			c-0.2,0.4-0.4,0.7-0.7,0.8s-0.6,0.3-0.9,0.4c-0.4,0.1-0.7,0.2-1,0.2c-0.4,0.1-0.7,0.2-1,0.4c-0.4-0.1-0.7-0.1-1,0
			s-0.6,0.2-0.7,0.6c-0.3,0.4-0.4,0.8-0.4,1.2c0,0.4,0,0.9,0.1,1.3c0.1,0.4,0.1,0.9,0.1,1.3s-0.1,0.9-0.2,1.3c0,1.3,0.3,2.5,0.7,3.7
			s0.8,2.3,1.2,3.5c0.6,0.8,1.3,1.4,2.1,1.8c0.8,0.3,1.6,0.7,2.4,1.1c0.5,0.8,0.8,1.8,0.9,2.8c-0.2,0.4-0.4,0.8-0.8,1.1
			c-0.3,0.3-0.7,0.6-1,0.9c-0.9,0.1-1.8,0.2-2.7,0.2c-0.9,0-1.7-0.3-2.3-1c-0.5-0.1-0.9-0.2-1.3-0.5c-0.3-0.3-0.7-0.6-0.9-0.9
			c-0.3-0.3-0.6-0.7-0.8-1.1c-0.3-0.4-0.6-0.7-0.9-0.9c-0.2-0.2-0.4-0.5-0.5-0.8c-0.1-0.3-0.2-0.6-0.3-0.9c-0.1-0.3-0.2-0.6-0.3-0.9
			c-0.1-0.3-0.3-0.5-0.6-0.8c-0.4-1.3-0.7-2.7-0.9-4.1s-0.3-2.8,0-4.1c0-0.3,0-0.6-0.1-0.8s-0.2-0.5-0.2-0.8s-0.1-0.5-0.2-0.8
			c-0.1-0.3,0-0.5,0.1-0.8c-0.2-0.3-0.4-0.4-0.7-0.3c-0.3,0.1-0.5,0.1-0.8-0.1c-0.6-0.3-1.1-0.7-1.6-1.1c-0.5-0.4-0.8-1-0.8-1.8
			l0.3-1.8c0.6-0.6,1.2-1,1.9-1.2c0.7-0.2,1.4-0.4,2.1-0.6c0.4-0.6,0.6-1.3,0.8-2c0.1-0.7,0.3-1.4,0.3-2.2c0.1-0.7,0.2-1.5,0.3-2.2
			c0.1-0.7,0.3-1.4,0.5-2c0.2-0.5,0.5-0.8,0.9-1c0.4-0.2,0.8-0.2,1.3-0.2s0.9,0.2,1.3,0.5C191.1,52.4,191.4,52.8,191.5,53.2z"/>
	</g>
	<g>
		<path class="st2" d="M206.4,48.4c0.5,0.6,0.8,1.3,0.9,2s0.2,1.4,0.2,2.1s0,1.5-0.1,2.2c0,0.8,0.1,1.5,0.3,2.2c0,1.5,0,3,0,4.5
			s0,3.1,0.1,4.6c0,1.3,0.1,2.6,0.1,3.8c0.1,1.2,0.1,2.5,0.1,3.8c-0.2,0.5-0.4,0.8-0.8,1.1c-0.4,0.3-0.8,0.5-1.2,0.7
			c-0.6,0-1.2,0-1.8,0c-0.6,0-1-0.2-1.5-0.6c-0.6-0.4-0.9-0.9-1.1-1.5c-0.2-0.6-0.3-1.2-0.3-1.8c0-0.6,0-1.3,0-1.9s0-1.3-0.2-1.9
			c0.2-0.8,0.2-1.5,0.1-2.3c-0.1-0.8,0-1.6,0.1-2.3c-0.1-0.3-0.2-0.6-0.2-0.9c0-0.3,0-0.6,0.1-0.8s0.1-0.6,0.2-0.8s0-0.6-0.1-1
			c0-1.1-0.2-2.3-0.4-3.4s-0.1-2.2,0.3-3.1c-0.2-1-0.3-2-0.1-3c0.2-1,0.6-1.8,1.2-2.5c0.6-0.3,1.4-0.4,2.1-0.4
			C205.3,47.4,205.9,47.8,206.4,48.4z M204.9,81.8c-0.5,0.1-0.9,0.4-1.1,0.7c-0.2,0.3-0.4,0.7-0.6,1.2c-0.1,0.4-0.2,0.9-0.3,1.3
			c0,0.5-0.1,0.9-0.1,1.3c0,0.7,0.2,1.3,0.6,1.8c0.4,0.5,0.9,1,1.4,1.3c0.3,0,0.6,0,0.9,0.1c0.3,0.1,0.6,0.1,0.9,0.1
			c0.3,0,0.6,0,0.8-0.1c0.3-0.1,0.5-0.3,0.6-0.6c0.5-0.8,0.7-1.7,0.7-2.8c0-1.1-0.1-2.1-0.4-3c-0.3-0.7-0.8-1.1-1.4-1.2
			C206.2,81.8,205.5,81.7,204.9,81.8z"/>
	</g>
</g>
<path class="st0" d="M24.9,20.1c0,3.6-1.7,4.1-4.3,2.6c-1.3-0.8-2.4-2.1-3.3-3.4c-2.6-3.8-7.6-6.5-5.9-12.2c0.4-1.3,2.1-0.9,3.3-0.2
	C19.8,10,23.5,14.3,24.9,20.1z"/>
<path class="st0" d="M38.4,11c-0.2,2-1,4.8-2.9,4.1c-3.8-1.4-3.5-5.7-4.1-9c-0.4-2,0.9-4.4,3.1-3.9C38.9,3.3,37.7,7.7,38.4,11z"/>
<path class="st0" d="M12.8,28.7c0.8,1.2-0.3,2.8-1.7,2.5c-4.5-1-7.3-2.7-8.8-6.5c-0.2-0.6,0.8-2.3,1.2-2.3
	C7.5,22.7,10.1,24.7,12.8,28.7z"/>
</svg>
