<svg xmlns="http://www.w3.org/2000/svg" viewBox="0 0 471.55 471.57"><path d="M135,16.28,394.51,275.05,279,394.81,19.54,133.19Z" transform="translate(0 0)" style="fill:#f1c411"/><path d="M332.8,455.31l-29.23-29.23L423.09,306.51l29.26,29.26a33.3,33.3,0,0,1,0,47.07l-72.48,72.47A33.28,33.28,0,0,1,332.8,455.31Z" transform="translate(0 0)" style="fill:#8e65a8"/><path d="M13.33,132.65,9.74,13.39l121.2-1.66Z" transform="translate(0 0)" style="fill:#fff"/><path d="M423.2,305.85,306.94,422.11,276.1,388.89,392.35,279.16Z" transform="translate(0 0)" style="fill:#fff"/><path d="M459.38,328.07,131.31,0H0V131.31L328.07,459.38a41.6,41.6,0,0,0,58.84,0l72.47-72.47A41.66,41.66,0,0,0,459.38,328.07ZM135.45,27.67,383.18,275.41l-25.3,25.31L110.14,53ZM307.5,351.09,59.76,103.36l43.31-43.31L350.81,307.79ZM16.64,16.64h106.3L16.64,122.94Zm11,118.81,25-25L300.43,358.16l-25,25ZM287.18,395,395,287.18l17.55,17.55L304.73,412.5Zm160.44-19.81-72.48,72.48a25,25,0,0,1-35.3,0L316.5,424.27,424.27,316.5l23.35,23.34A25,25,0,0,1,447.62,375.14Z" transform="translate(0 0)" style="fill:#1d1d1b"/></svg>