<svg id="Layer_1" data-name="Layer 1" xmlns="http://www.w3.org/2000/svg" viewBox="0 0 512 456.72"><path d="M14.06,189.54v-11c3.13-8.51,11.26-6.5,18.46-8a171.14,171.14,0,0,1-18.46-49v-29c.26-1.14.61-2.26.78-3.4a168.62,168.62,0,0,1,18-54.84A120.34,120.34,0,0,1,49.18,11.21C54.91,4.83,60.05,6.16,65,13.13,72.92,24.27,81,35.3,89.08,46.3c23.41,31.73,53.78,53.9,91.58,65.27,14.31,4.3,29.05,7.22,43.69,10.32,6.28,1.33,7.75-.72,8.58-6.85s1.89-12.61,4.13-18.43c7.75-20.1,21.22-36.34,37.64-49.68,34.19-27.79,73.56-35.67,116.13-26.06,22.24,5,40.75,16.34,50.84,38.3.64,1.41,3.29,2.69,5,2.69,11.32,0,22.64-.48,34-.45,6.51,0,13.07,1.15,15.78,8.2,2.64,6.88-1.06,12.22-5.62,17-1.61,1.68-3.39,3.21-5,4.88-1,1-1.86,2.19-3.78,4.49,4.9.51,8.59,1.24,12.27,1.21,6-.06,10.67,1.82,14.23,6.74,5.76,7.94,11.69,15.76,17.55,23.63v8c-11.8,18-25.18,34.48-43.29,46.5-5.14,3.41-7.41,7.7-8.62,13.68-8.07,39.82-21,77.92-43.26,112.2-25.39,39.11-56.8,72.93-95.24,99.34-64.55,44.36-135.11,66.25-214.06,52.45a323.78,323.78,0,0,1-35.85-8.82c-30-8.9-41.4-32.24-46-60.65-1-6.28,1.43-10,7-12.68,11.12-5.31,22.14-10.85,33.1-16.5,4.13-2.13,8-4.75,11.94-7.27,3-1.92,3.18-3.76,0-6-5.18-3.64-10.21-7.49-15.13-11.48-13.24-10.74-23.39-23.68-27.85-40.46-2-7.51-2.73-14.9,4.53-20.78-1.3-1.49-2.36-2.73-3.45-3.94C38.29,258.39,29,244.19,23.91,227.7,20.05,215.16,17.3,202.28,14.06,189.54Zm299.16,161.6c7.25-6.37,14.64-12.6,21.55-19.32,1.81-1.76,2.71-5,3-7.7.95-10.44,1.2-20.95,2.23-31.38,1.32-13.42,3.1-26.79,4.77-40.16.42-3.36,2.12-5.57,5.92-5.4s5.24,2.76,5.44,6a49.39,49.39,0,0,1-.32,10.46c-2.51,15.79-6.43,54.76-4.84,53.27,3.77-3.52,10.74-9.48,14.24-13.27,4.55-4.92,11-13.23,13.92-22s2.27-41.33,2.92-52.3A109.49,109.49,0,0,1,384.59,212c.35-1.6,2.77-3.85,4.2-3.82s3.92,2.11,4.42,3.76a23.48,23.48,0,0,1,.5,8.82c-1.65,16.69-2,48.26-1.21,46.94,3.35-5.55,20-21.22,29.36-41.4,9.82-21.17,12.28-46.77,12.54-47.55,2.3-6.79,4.08-13.79,6.91-20.34,1.55-3.61,4.13-7.64,7.38-9.49,11.64-6.65,18.11-17.84,26.1-27.72.1-.13-.19-.58-.51-1.47a42.85,42.85,0,0,1-6.69-.06c-5.57-.86-11.24-1.53-16.58-3.2-4.9-1.53-6.34-4.78-4.25-9.46,2.22-5,5.45-9.46,8.28-14.14.89-1.46,1.93-2.82,3.54-5.15-5.87.37-10.48.6-15.08,1-8.25.64-14.12-2.74-17.85-10.13-3.07-6.1-6.37-12.09-9.48-18.17-4.36-8.49-11.39-13.74-20.19-16.88-15.1-5.39-30.79-6.39-46.38-4.12-23.31,3.4-43.36,14.65-62.07,28.46-16.5,12.17-25.3,28.81-28.2,48.84-.72,4.94-1.23,9.91-2,14.84-1.4,8.59-4.79,12-13.38,12.85a82.44,82.44,0,0,1-14-.19c-22.31-1.77-43.52-8.28-64.29-16.07-19.48-7.31-39.08-14.65-56-27.28-22.82-17-39.9-39-54.28-63.35-1.23-2.08-2.59-4.09-4.41-7-1.39,2.36-2.52,3.76-3.12,5.37-2,5.46-4.11,10.93-5.75,16.51C30.26,92.66,32,131.1,57.43,166.32c3.31,4.59,7.1,8.83,10.41,13.42a23.27,23.27,0,0,1,3.87,7.41c2.08,8.1-2.75,14-11,13.47-4.81-.28-9.58-1.15-14.38-1.69-6.69-.76-7.59.24-5.53,6.62,7,21.7,18.25,40.59,36.37,55.07A234.45,234.45,0,0,1,97,278.92c4.61,4.65,3.9,9-1.84,12.21-4,2.25-8.57,3.61-12.87,5.39-4.84,2-5.77,3.94-3.35,8.42a55.47,55.47,0,0,0,6.22,9c9.21,11,20.89,18.42,34.24,23.5a53.75,53.75,0,0,1,11.85,6.32,11.65,11.65,0,0,1,4.26,12.91c-1.82,5.21-6.1,6.12-10.85,6.16a66.5,66.5,0,0,0-8,.05c-2.58.33-5.48.68-7.54,2.07q-15.72,10.62-31,21.86c-4.17,3.07-3.9,6.77.84,8.91,14.49,6.52,29.33,11.91,45.6,11.58,3.79-.07,7.66-15.4,8.69-20.27.74-3.52,2.28-6.94,7-6.14,4.32.73,6.53,4.3,5.39,9-1.1,4.53-2.7,8.93-3.93,13.43-1,3.55.06,6,4.15,6.12,4.81.11,9.61,0,14.41,0,3.27,0,4.88-1.78,5.4-4.76.8-4.6,1.51-9.21,2.28-13.8.95-5.75,1.57-11.58,3-17.2,1.15-4.51,6.32-7.38,10.13-6.1,5.16,1.73,3.22,5.85,2.58,9.26s-1.71,6.79-2.64,10.16c-1.43,5.14-4.41,21.31-.48,22.14,12.14,2.56,20.06-2.21,23.11-14,.12-.48.25-1,.34-1.46,2.61-13.57,5.25-27.14,7.79-40.73.79-4.23,2.5-7.6,7-8.85s7,.64,6.48,5.2a69.69,69.69,0,0,1-2.24,11.26c-3.82,13.64-12.07,47.22-7.06,45.82s9.74-3.37,14.58-5.13a8.22,8.22,0,0,0,5.75-7.43q1.77-16.38,3.69-32.75c1.15-9.74,2-19.55,3.78-29.16,1.05-5.56,5.69-8.36,9.77-7.19,5.74,1.64,4,6.3,3.33,10-1.92,10.12-7.52,40.72-6,52.41,1,7.22,8.28-.66,10-1.41,5.62-2.4,7.39-6.93,8-12.71q2.29-22.35,5.35-44.61a158.45,158.45,0,0,1,3.65-16.59c1-3.87,3-6.95,7.63-6.22,4.91.77,4.94,4.74,4.86,8.51a27.72,27.72,0,0,1-.67,5.44c-3.52,15.77-8.21,53.74-7.83,54,5.67-3.37,8.47-6.08,14.19-9.37,3.67-2.11,5.3-5.27,5.72-9.36,1.33-12.92,2.44-25.88,4.23-38.73,1.65-11.86,3.86-23.66,6.32-35.38.41-1.95,3.77-5,5-4.67,2.23.56,5,3.07,5.55,5.25a27.9,27.9,0,0,1,0,11.33c-2.06,11.14-4.52,22.2-6.9,33.28C314.09,334.3,312.79,351.52,313.22,351.14Z" transform="translate(-14.06 -7.09)" style="fill:#fff"/></svg>