<?xml version="1.0" encoding="utf-8"?>
<!-- Generator: Adobe Illustrator 24.2.1, SVG Export Plug-In . SVG Version: 6.00 Build 0)  -->
<svg version="1.1" id="Layer_1" xmlns="http://www.w3.org/2000/svg" xmlns:xlink="http://www.w3.org/1999/xlink" x="0px" y="0px"
	 viewBox="0 0 359.5 359.1" style="enable-background:new 0 0 359.5 359.1;" xml:space="preserve">
<style type="text/css">
	.st0{fill:none;}
	.st1{fill:#FFFFFF;}
	.st2{fill:#1B1C1C;}
</style>
<g>
	<g>
		<path class="st0" d="M320.8,59.5c1.1,1.6,2.3,3.2,3.4,4.8c6.8,10.1,12.4,20.8,17.1,31.8"/>
		<path class="st0" d="M186.8,2.5c14.7-1.3,30.2-0.9,46,2.3"/>
		<path class="st0" d="M245.3,8.1c10.4,3.1,20.8,7.6,31.1,13.8c13,7.8,24.8,15.5,35.5,26.9"/>
		<path class="st1" d="M212.9,192.6c-1.8,0.1-3.5,0.1-5.2,0.1c-34.1,1-35.6,1.5-46.9-30.9c-6.7-19.3-17.9-26.2-35.6-23.9
			c-12.3-2.6-16.8,3.2-17.3,13.1c-1.4,25.7-3,51.4-3.3,77.1c-0.1,4.4,5.5,10.1,9.9,13.2c14.5,10.3,29.5,20,44.7,29.2
			c3.9,2.4,10.6,4.5,13.8,2.8c25-13.2,49.7-27.3,74.1-41.7c2.6-1.5,4.7-7.7,3.8-10.9C245.5,200,234.2,192.1,212.9,192.6z"/>
		<path class="st1" d="M248.7,246.7c-37.6,26-77.7,47.1-122.3,58.9c-19.7,5.2-28.1,0.2-30.7-20.3c-3.1-24.6-4.8-49.5-7-74.2
			c-3.9-46.9,8-89.1,33.3-128.5c13-20.3,25.9-40.7,38.7-61.1c-42.1,4.9-83.5,19.9-118.9,70.3c-29.9,42.5-30.6,88.9-20.5,153.5
			c10.8,38.3,36.4,63.4,70.7,77.8c35.9,15,85.3,29.7,120.8,16l46.1-17.5c15.4-10.7,32.2-19,45.6-35.9
			c31.2-39.7,37.3-88.5,34.5-128.3c-0.5-7.5-1.5-14.7-2.9-21.6c-18.4,27.9-37.5,55.3-58,81.9C269.8,228.4,259.9,238.9,248.7,246.7z"
			/>
		<path class="st2" d="M356.3,161.4c-0.8-15.2-3.4-30.3-7.7-45c-2-6.9-4.5-13.7-7.3-20.4c-4.6-11-10.3-21.6-17.1-31.8
			c-1.1-1.7-2.3-3.3-3.4-4.8C318,55.5,315,52,312,48.8c-10.7-11.4-22.5-19.1-35.5-26.9c-10.3-6.2-20.8-10.6-31.1-13.8
			c-4.2-1.3-8.4-2.3-12.5-3.2c-15.8-3.2-31.3-3.6-46-2.3c-5.3,0.5-10.5,1.1-15.6,2c-4.2,0.7-8.3,1.5-12.3,2.4
			c-17.9,3.7-45.5,10.9-68.8,23.4c-26,14-47.1,33.8-54.4,45.7C-16,160.1-13.9,293.3,93,337.9c15.6,6.5,39.5,16,55.6,17.1
			c30.8,2.1,56.8,3.7,86.6-11.8c0,0,48-22.3,55.3-27.7c19.3-14.2,28.6-23.2,44.2-46.1C361,230.8,358.7,205.7,356.3,161.4z
			 M330.1,113.5c-19,29.3-37.9,58.7-56.9,88c-3,4.6-6.9,8.5-11.6,14.4c-6.4-10.2-13.1-18-16.4-27.2c-1.8-4.8,0.9-12.6,4.1-17.5
			c20.3-32,40.8-63.8,61.3-95.6C318.3,86.7,325.1,99.3,330.1,113.5z M247.1,231.7c-24.4,14.4-49,28.5-74.1,41.7
			c-3.3,1.7-9.9-0.4-13.8-2.8c-15.2-9.2-30.2-18.9-44.7-29.2c-4.4-3.1-10-8.8-9.9-13.2c0.2-25.7,1.9-51.4,3.3-77.1
			c0.5-9.9,5-15.7,17.3-13.1c17.6-2.3,28.8,4.6,35.6,23.9c11.4,32.4,12.8,31.9,46.9,30.9c1.8-0.1,3.5-0.1,5.2-0.1
			c21.3-0.6,32.5,7.4,38,28.2C251.8,224,249.7,230.2,247.1,231.7z M289.8,51.3c4.3,4.1,8.4,8.5,12.3,13.3
			c-22,35.5-44.1,71-66.3,106.5c-2.9,4.7-9.8,7.9-15.5,9.6c-7,2.1-14.6,1.9-22,2.7c-13.7,3.5-18.3-4.2-24.1-15.4
			c-11.1-21.4-7-38.1,5.7-57.6C199,81,217.9,51.5,236.6,21.8C254.8,25.7,271.9,34,289.8,51.3z M196,19.1c9.6-0.3,18.7-0.2,27.5,0.7
			c-19,30.4-37.8,61-56.4,91.6c-9.2,15.1-19.2,19.7-35,16.1c-4.6-1-9.4-1.6-16.3-2.8C134.6,89,155,54.2,176,20
			C182.7,19.6,189.3,19.3,196,19.1z M304.5,285.5c-13.3,17-30.2,25.2-45.6,35.9L212.8,339c-35.5,13.6-84.9-1-120.8-16
			c-34.3-14.4-59.9-39.6-70.7-77.8c-10.1-64.5-9.4-110.9,20.5-153.5c35.4-50.4,76.8-65.4,118.9-70.3c-12.8,20.4-25.7,40.8-38.7,61.1
			C96.6,122,84.7,164.1,88.6,211c2.3,24.8,3.9,49.6,7,74.2c2.7,20.4,11,25.5,30.7,20.3c44.5-11.8,84.7-32.9,122.3-58.9
			c11.2-7.8,21.1-18.3,29.5-29.2c20.4-26.6,39.5-54,58-81.9c1.4,6.9,2.3,14.1,2.9,21.6C341.7,197,335.6,245.8,304.5,285.5z"/>
	</g>
	<path class="st1" d="M135.9,137.8c11.6,1.5,19.6,9,24.9,24.1c11.3,32.4,12.8,31.9,46.9,30.9c1.8-0.1,3.5-0.1,5.2-0.1
		c21.3-0.6,32.5,7.4,38,28.2c0.8,3.2-1.2,9.3-3.8,10.9c-24.4,14.4-49,28.5-74.1,41.7c-3.3,1.7-9.9-0.4-13.8-2.8
		c-15.2-9.2-30.2-18.9-44.7-29.2c-4.4-3.1-9.9-8.8-9.9-13.2c0.2-25.7,1.9-51.4,3.3-77.1c0.3-6.1,2.2-10.7,6.4-12.7
		C117,137.2,132.6,137.4,135.9,137.8z"/>
</g>
</svg>
